<?xml version="1.0" encoding="UTF-8"?>
<svg width="19px" height="19px" viewBox="0 0 19 19" version="1.1" xmlns="http://www.w3.org/2000/svg" xmlns:xlink="http://www.w3.org/1999/xlink">
    <title>背景颜色</title>
    <g id="考试系统_V1.0.1" stroke="none" stroke-width="1" fill="none" fill-rule="evenodd">
        <g id="1-2-1考试管理/创建考试" transform="translate(-830.000000, -276.000000)">
            <g id="基本信息" transform="translate(210.000000, 58.000000)">
                <g id="编组-2备份-2" transform="translate(54.000000, 201.000000)">
                    <g id="toolbar" transform="translate(84.000000, 13.000000)">
                        <g transform="translate(0.000000, -0.000000)" id="编组-7">
                            <g transform="translate(0.000000, -0.000000)">
                                <g id="编组" transform="translate(318.000000, 0.000000)">
                                    <g id="上角标备份-7" transform="translate(160.000000, 0.000000)">
                                        <g id="背景颜色" transform="translate(4.000000, 4.000000)">
                                            <g>
                                                <rect id="矩形" fill-opacity="0.01" fill="#FFFFFF" fill-rule="nonzero" x="0" y="0" width="19" height="19"></rect>
                                                <path d="M14.6458333,14.6458333 C15.5202687,14.6458333 16.2291667,13.9369354 16.2291667,13.0625 C16.2291667,12.4795167 15.7014021,11.68785 14.6458333,10.6875 C13.5902646,11.68785 13.0625,12.4795167 13.0625,13.0625 C13.0625,13.9369354 13.7713979,14.6458333 14.6458333,14.6458333 Z" id="路径" fill="#4A4A51"></path>
                                                <line x1="8.25451042" y1="2.17882104" x2="9.65397917" y2="3.57830563" id="路径" stroke="#4A4A51" stroke-width="1.58333333" stroke-linecap="round"></line>
                                                <polygon id="路径" stroke="#4A4A51" stroke-width="1.58333333" stroke-linejoin="round" points="9.37404583 3.29840396 3.21633979 9.45614167 7.69468333 13.9344812 13.8523854 7.77673958"></polygon>
                                                <line x1="4.75" y1="7.94564167" x2="11.4637292" y2="10.1529667" id="路径" stroke="#4A4A51" stroke-width="1.58333333" stroke-linecap="round"></line>
                                            </g>
                                            <rect id="矩形" fill="#FFB026" x="2" y="15" width="14" height="2"></rect>
                                        </g>
                                    </g>
                                </g>
                            </g>
                        </g>
                    </g>
                </g>
            </g>
        </g>
    </g>
</svg>