<?xml version="1.0" encoding="UTF-8"?>
<svg width="16px" height="16px" viewBox="0 0 16 16" version="1.1" xmlns="http://www.w3.org/2000/svg" xmlns:xlink="http://www.w3.org/1999/xlink">
    <title>有序列标</title>
    <g id="考试系统_V1.0.1" stroke="none" stroke-width="1" fill="none" fill-rule="evenodd">
        <g id="1-2-1考试管理/创建考试" transform="translate(-884.000000, -277.000000)" fill="#4A4A51" fill-rule="nonzero">
            <g id="基本信息" transform="translate(210.000000, 58.000000)">
                <g id="编组-2备份-2" transform="translate(54.000000, 201.000000)">
                    <g id="toolbar" transform="translate(84.000000, 13.000000)">
                        <g id="编组-5" transform="translate(531.000000, 0.161984)">
                            <g id="有序" transform="translate(5.000000, 4.968849)">
                                <path d="M4.88784711,0.993558055 L14.9867048,0.993558055 C15.5444493,0.993558055 15.9965906,1.4428824 15.9965906,1.99715206 C15.9965906,2.55142173 15.5444493,3.00074607 14.9867048,3.00074607 L4.88784711,3.00074607 C4.3301026,3.00074607 3.87796134,2.55142173 3.87796134,1.99715206 C3.87796134,1.4428824 4.3301026,0.993558055 4.88784711,0.993558055 L4.88784711,0.993558055 Z M4.88784711,7.0151221 L14.9867048,7.0151221 C15.5444493,7.0151221 15.9965905,7.46444643 15.9965905,8.01871609 C15.9965905,8.57298575 15.5444493,9.02231009 14.9867048,9.02231009 L4.88784711,9.02231009 C4.3301026,9.02231009 3.87796135,8.57298575 3.87796135,8.01871609 C3.87796135,7.46444643 4.3301026,7.0151221 4.88784711,7.0151221 L4.88784711,7.0151221 Z M4.88784711,13.0366861 L14.9867048,13.0366861 C15.5444493,13.0366861 15.9965906,13.4860105 15.9965906,14.0402801 C15.9965906,14.5945498 15.5444493,15.0438741 14.9867048,15.0438741 L4.88784711,15.0438741 C4.3301026,15.0438741 3.87796134,14.5945498 3.87796134,14.0402801 C3.87796134,13.4860105 4.3301026,13.0366861 4.88784711,13.0366861 L4.88784711,13.0366861 Z M0.191878289,1.05377371 L0.191878289,0.582084523 C0.34651096,0.593591956 0.50179307,0.593591956 0.656425741,0.582084523 C0.787801908,0.554896181 0.907636857,0.488346807 0.9997869,0.391401669 C1.06629206,0.320110688 1.11475699,0.234105366 1.14117091,0.140503165 C1.14687964,0.0938405773 1.14687964,0.0466625874 1.14117091,0 L1.78749779,0 L1.78749779,3.50254308 L1.03008348,3.50254308 L1.03008348,1.05377371 L0.191878289,1.05377371 Z M0.191878289,8.83162724 C0.357655238,8.52391472 0.6013115,8.26448089 0.898798326,8.07893172 C1.11985065,7.93115809 1.32917409,7.76675573 1.52492751,7.58717068 C1.66395659,7.45231659 1.74380087,7.2683762 1.74710238,7.07533773 C1.75265082,6.94114744 1.70966021,6.8094189 1.62591608,6.70400794 C1.5349483,6.6002809 1.40052552,6.54462036 1.2623572,6.55346885 C1.06651429,6.50984381 0.866102399,6.60527622 0.777612034,6.78429548 C0.72362479,6.92181835 0.696215674,7.0682245 0.696821178,7.21584089 L0.0403954177,7.21584089 C0.0392422648,6.96278079 0.0944204048,6.71259898 0.201977148,6.48321726 C0.395548432,6.11545482 0.796944316,5.90404041 1.21186291,5.95131245 C1.54083339,5.93450758 1.86338317,6.04615642 2.11066125,6.26242658 C2.33479315,6.47693812 2.45605317,6.77637365 2.44392355,7.08537367 C2.44844384,7.33887698 2.36658744,7.58645305 2.21164983,7.78788947 C2.06301804,7.9625525 1.88950502,8.11469838 1.69660808,8.23950677 L1.41384008,8.44022557 L1.0502812,8.71119595 C0.986639502,8.76589182 0.932104972,8.83024811 0.888699467,8.90187881 L2.44392355,8.90187881 L2.44392355,9.51407116 L0,9.51407116 C0.00310162167,9.27438035 0.0582166776,9.03817746 0.16158171,8.82159129 L0.191878289,8.83162724 Z M0.696821178,14.4617896 C0.69346554,14.5826721 0.717630937,14.7027463 0.767513174,14.8130475 C0.853848835,14.9864822 1.03801335,15.0899267 1.23206063,15.0739819 C1.34808442,15.0776761 1.46196171,15.0423112 1.55522407,14.9736225 C1.66125141,14.8675517 1.71640811,14.7213836 1.70670694,14.5721849 C1.72699952,14.3702866 1.61225991,14.1788879 1.42393894,14.1004958 C1.2649152,14.0271123 1.0938484,13.982912 0.918996045,13.9700285 L0.918996045,13.4682315 C1.08018513,13.4735406 1.24100587,13.4497378 1.39364236,13.39798 C1.55808961,13.3204939 1.65234257,13.1453797 1.62591608,12.9664345 C1.63117716,12.8444576 1.58760335,12.7253762 1.50472979,12.6352485 C1.41770533,12.5461349 1.2962698,12.4985947 1.17146749,12.5047813 C1.03097039,12.4950021 0.894751882,12.5551665 0.807908612,12.6653563 C0.724105247,12.789389 0.684956845,12.9379334 0.696821178,13.0868658 L0.0403954177,13.0868658 C0.0459693273,12.9160971 0.0765884778,12.7470505 0.131285152,12.5850688 C0.194515325,12.4404957 0.287380721,12.3106105 0.403954296,12.2037031 C0.497811322,12.1193744 0.607685466,12.0545431 0.727117757,12.0130202 C0.878129831,11.970986 1.035092,11.9540311 1.19166521,11.9628405 C1.49030656,11.9479319 1.78433721,12.0405803 2.01977152,12.223775 C2.22776777,12.3972827 2.3433382,12.6566223 2.33283612,12.9262908 C2.33774507,13.121149 2.26932433,13.3108177 2.14095781,13.4581956 C2.07598301,13.5369277 1.99283485,13.5989003 1.89858523,13.6388425 C2.00446137,13.6618978 2.10006245,13.7181973 2.17125439,13.7994176 C2.35590667,13.9736924 2.45538644,14.2190116 2.44392355,14.4718255 C2.44718587,14.7664888 2.33490423,15.0508432 2.13085897,15.2646648 C1.8849216,15.5058481 1.54642232,15.6301663 1.20176405,15.6058868 C0.801174022,15.6316739 0.416842872,15.4445249 0.191878289,15.1141257 C0.0797374272,14.9038732 0.0208125515,14.6696421 0.0201977188,14.4316818 L0.696821178,14.4617896 Z" id="有序列标"></path>
                            </g>
                        </g>
                    </g>
                </g>
            </g>
        </g>
    </g>
</svg>