<?xml version="1.0" encoding="UTF-8"?>
<svg width="16px" height="15px" viewBox="0 0 16 15" version="1.1" xmlns="http://www.w3.org/2000/svg" xmlns:xlink="http://www.w3.org/1999/xlink">
    <title>无数字列标</title>
    <g id="考试系统_V1.0.1" stroke="none" stroke-width="1" fill="none" fill-rule="evenodd">
        <g id="1-2-1考试管理/创建考试" transform="translate(-914.000000, -278.000000)" fill="#4A4A51" fill-rule="nonzero">
            <g id="基本信息" transform="translate(210.000000, 58.000000)">
                <g id="编组-2备份-2" transform="translate(54.000000, 201.000000)">
                    <g id="toolbar" transform="translate(84.000000, 13.000000)">
                        <g id="编组-5" transform="translate(531.000000, 0.161984)">
                            <g id="youxuliebiao备份" transform="translate(35.119055, 6.222487)">
                                <path d="M14.8752433,12.0431281 C15.4329878,12.0431281 15.885129,12.4924524 15.885129,13.0467221 C15.885129,13.6009917 15.4329878,14.0503161 14.8752433,14.0503161 L4.7763856,14.0503161 C4.21864109,14.0503161 3.76649983,13.6009917 3.76649983,13.0467221 C3.76649983,12.4924524 4.21864109,12.0431281 4.7763856,12.0431281 L14.8752433,12.0431281 Z M1.31584389,12.0431281 C1.8735884,12.0431281 2.32572966,12.4924524 2.32572966,13.0467221 C2.32572966,13.6009917 1.8735884,14.0503161 1.31584389,14.0503161 L1.00988577,14.0503161 C0.45214126,14.0503161 -1.05160325e-12,13.6009917 -1.05160325e-12,13.0467221 C-1.05160325e-12,12.4924524 0.45214126,12.0431281 1.00988577,12.0431281 L1.31584389,12.0431281 Z M14.8752433,6.02156404 C15.4329878,6.02156404 15.885129,6.47088838 15.885129,7.02515804 C15.885129,7.5794277 15.4329878,8.02875203 14.8752433,8.02875203 L4.7763856,8.02875203 C4.21864109,8.02875203 3.76649984,7.5794277 3.76649984,7.02515804 C3.76649984,6.47088838 4.21864109,6.02156404 4.7763856,6.02156404 L14.8752433,6.02156404 Z M1.31584388,5.98885421 C1.87358839,5.98885421 2.32572964,6.43817855 2.32572964,6.99244821 C2.32572964,7.54671787 1.87358839,7.99604221 1.31584388,7.99604221 L1.00988576,7.99604221 C0.452141256,7.99604221 -1.05160325e-12,7.54671787 -1.05160325e-12,6.99244821 C-1.05160325e-12,6.43817855 0.452141256,5.98885421 1.00988576,5.98885421 L1.31584388,5.98885421 Z M14.8752433,-2.06945572e-13 C15.4329878,-2.06945572e-13 15.885129,0.449324342 15.885129,1.00359401 C15.885129,1.55786367 15.4329878,2.00718801 14.8752433,2.00718801 L4.7763856,2.00718801 C4.21864109,2.00718801 3.76649983,1.55786367 3.76649983,1.00359401 C3.76649983,0.449324342 4.21864109,-2.06945572e-13 4.7763856,-2.06945572e-13 L14.8752433,-2.06945572e-13 Z M1.31584389,-2.06945572e-13 C1.8735884,-2.06945572e-13 2.32572966,0.449324342 2.32572966,1.00359401 C2.32572966,1.55786367 1.8735884,2.00718801 1.31584389,2.00718801 L1.00988577,2.00718801 C0.45214126,2.00718801 3.18634008e-13,1.55786367 3.18634008e-13,1.00359401 C3.18634008e-13,0.449324342 0.45214126,-2.06945572e-13 1.00988577,-2.06945572e-13 L1.31584389,-2.06945572e-13 Z" id="无数字列标"></path>
                            </g>
                        </g>
                    </g>
                </g>
            </g>
        </g>
    </g>
</svg>