<?xml version="1.0" encoding="UTF-8"?>
<svg width="16px" height="16px" viewBox="0 0 16 16" version="1.1" xmlns="http://www.w3.org/2000/svg" xmlns:xlink="http://www.w3.org/1999/xlink">
    <title>任务列表</title>
    <g id="考试系统_V1.0.1" stroke="none" stroke-width="1" fill="none" fill-rule="evenodd">
        <g id="1-2-1考试管理/创建考试" transform="translate(-944.000000, -277.000000)" fill="#4A4A51" fill-rule="nonzero">
            <g id="基本信息" transform="translate(210.000000, 58.000000)">
                <g id="编组-2备份-2" transform="translate(54.000000, 201.000000)">
                    <g id="toolbar" transform="translate(84.000000, 13.000000)">
                        <g id="上角标备份-5" transform="translate(591.000000, 0.161984)">
                            <g id="编组" transform="translate(5.135555, 5.250000)">
                                <path d="M13.5833333,0 C14.6418921,0 15.5,0.858117766 15.5,1.91666667 L15.5,1.91666667 L15.5,13.5833333 C15.5,14.6418969 14.6418969,15.5 13.5833333,15.5 L13.5833333,15.5 L1.91666667,15.5 C0.858117766,15.5 0,14.6418921 0,13.5833333 L0,13.5833333 L0,1.91666667 C0,0.858122549 0.858122549,0 1.91666667,0 L1.91666667,0 Z M13.5833333,1.5 L1.91666667,1.5 C1.68654967,1.5 1.5,1.68654967 1.5,1.91666667 L1.5,1.91666667 L1.5,13.5833333 C1.5,13.8134611 1.68654103,14 1.91666667,14 L1.91666667,14 L13.5833333,14 C13.8134698,14 14,13.8134698 14,13.5833333 L14,13.5833333 L14,1.91666667 C14,1.68654103 13.8134611,1.5 13.5833333,1.5 L13.5833333,1.5 Z M11.1966739,5.04264776 C11.5886017,5.4345756 11.5866099,6.07200804 11.192225,6.46639296 L7.62173959,10.0368783 C7.58961774,10.0690002 7.55588357,10.098519 7.52080104,10.1254339 L7.49611352,10.1513342 L7.49611352,10.1513342 C7.10418568,10.543262 6.46675324,10.5412702 6.07236832,10.1468853 L4.04709671,8.12161364 C3.65271178,7.72722872 3.65071992,7.08979628 4.04264776,6.69786844 C4.4345756,6.3059406 5.07200804,6.30793246 5.46639296,6.70231739 L6.792,8.028 L9.7729287,5.04709671 C10.1673136,4.65271178 10.8047461,4.65071992 11.1966739,5.04264776 Z" id="任务列表"></path>
                            </g>
                        </g>
                    </g>
                </g>
            </g>
        </g>
    </g>
</svg>