<?xml version="1.0" encoding="UTF-8"?>
<svg width="18px" height="14px" viewBox="0 0 18 14" version="1.1" xmlns="http://www.w3.org/2000/svg" xmlns:xlink="http://www.w3.org/1999/xlink">
    <title>左对齐</title>
    <g id="考试系统_V1.0.1" stroke="none" stroke-width="1" fill="none" fill-rule="evenodd">
        <g id="1-2-1考试管理/创建考试" transform="translate(-987.000000, -279.000000)" fill="#4A4A51" fill-rule="nonzero">
            <g id="基本信息" transform="translate(210.000000, 58.000000)">
                <g id="编组-2备份-2" transform="translate(54.000000, 201.000000)">
                    <g id="toolbar" transform="translate(84.000000, 13.000000)">
                        <g transform="translate(0.000000, -0.000000)" id="编组-7">
                            <g transform="translate(0.000000, -0.000000)">
                                <g id="编组-9备份-2" transform="translate(634.000000, 0.000000)">
                                    <g id="上角标备份-9" transform="translate(-0.000000, 0.161984)">
                                        <g id="编组" transform="translate(4.000000, 4.000000)">
                                            <path d="M12.6875,14.6458333 C13.1247254,14.6458333 13.4791667,15.0002746 13.4791667,15.4375 C13.4791667,15.83829 13.1813376,16.1695182 12.7949245,16.2219397 L12.6875,16.2291667 L2.375,16.2291667 C1.93777457,16.2291667 1.58333333,15.8747254 1.58333333,15.4375 C1.58333333,15.03671 1.88116243,14.7054818 2.26757552,14.6530603 L2.375,14.6458333 L12.6875,14.6458333 Z M17.4166667,11 C17.8538921,11 18.2083333,11.3544412 18.2083333,11.7916667 C18.2083333,12.1924566 17.9105042,12.5236849 17.5240911,12.5761063 L17.4166667,12.5833333 L2.79166667,12.5833333 C2.35444124,12.5833333 2,12.2288921 2,11.7916667 C2,11.3908767 2.2978291,11.0596484 2.68424219,11.007227 L2.79166667,11 L17.4166667,11 Z M11.8958333,7 C12.3330588,7 12.6875,7.35444124 12.6875,7.79166667 C12.6875,8.19245664 12.3896709,8.5236849 12.0032578,8.57610635 L11.8958333,8.58333333 L2.79166667,8.58333333 C2.35444124,8.58333333 2,8.22889209 2,7.79166667 C2,7.39087669 2.2978291,7.05964843 2.68424219,7.00722698 L2.79166667,7 L11.8958333,7 Z M17.0416667,3 C17.4788921,3 17.8333333,3.35444124 17.8333333,3.79166667 C17.8333333,4.19245664 17.5355042,4.5236849 17.1490911,4.57610635 L17.0416667,4.58333333 L2.79166667,4.58333333 C2.35444124,4.58333333 2,4.22889209 2,3.79166667 C2,3.39087669 2.2978291,3.05964843 2.68424219,3.00722698 L2.79166667,3 L17.0416667,3 Z" id="左对齐"></path>
                                        </g>
                                    </g>
                                </g>
                            </g>
                        </g>
                    </g>
                </g>
            </g>
        </g>
    </g>
</svg>