<?xml version="1.0" encoding="UTF-8"?>
<svg width="17px" height="14px" viewBox="0 0 17 14" version="1.1" xmlns="http://www.w3.org/2000/svg" xmlns:xlink="http://www.w3.org/1999/xlink">
    <title>居中对齐</title>
    <g id="考试系统_V1.0.1" stroke="none" stroke-width="1" fill="none" fill-rule="evenodd">
        <g id="1-2-1考试管理/创建考试" transform="translate(-908.000000, -506.000000)" fill="#4A4A51" fill-rule="nonzero">
            <g id="dropdown_basic_hover_active" transform="translate(892.000000, 462.000000)">
                <g id="编组" transform="translate(15.000000, 41.000000)">
                    <path d="M14.5208333,15 C14.9580588,15 15.3125,15.3544412 15.3125,15.7916667 C15.3125,16.1924566 15.0146709,16.5236849 14.6282578,16.5761063 L14.5208333,16.5833333 L4.20833333,16.5833333 C3.77110791,16.5833333 3.41666667,16.2288921 3.41666667,15.7916667 C3.41666667,15.3908767 3.71449576,15.0596484 4.10090886,15.007227 L4.20833333,15 L14.5208333,15 Z M16.8333333,11 C17.2705588,11 17.625,11.3544412 17.625,11.7916667 C17.625,12.1924566 17.3271709,12.5236849 16.9407578,12.5761063 L16.8333333,12.5833333 L2.20833333,12.5833333 C1.77110791,12.5833333 1.41666667,12.2288921 1.41666667,11.7916667 C1.41666667,11.3908767 1.71449576,11.0596484 2.10090886,11.007227 L2.20833333,11 L16.8333333,11 Z M14.3125,7 C14.7497254,7 15.1041667,7.35444124 15.1041667,7.79166667 C15.1041667,8.19245664 14.8063376,8.5236849 14.4199245,8.57610635 L14.3125,8.58333333 L5.20833333,8.58333333 C4.77110791,8.58333333 4.41666667,8.22889209 4.41666667,7.79166667 C4.41666667,7.39087669 4.71449576,7.05964843 5.10090886,7.00722698 L5.20833333,7 L14.3125,7 Z M16.4583333,3 C16.8955588,3 17.25,3.35444124 17.25,3.79166667 C17.25,4.19245664 16.9521709,4.5236849 16.5657578,4.57610635 L16.4583333,4.58333333 L2.20833333,4.58333333 C1.77110791,4.58333333 1.41666667,4.22889209 1.41666667,3.79166667 C1.41666667,3.39087669 1.71449576,3.05964843 2.10090886,3.00722698 L2.20833333,3 L16.4583333,3 Z" id="居中对齐"></path>
                </g>
            </g>
        </g>
    </g>
</svg>