<?xml version="1.0" encoding="UTF-8"?>
<svg width="17px" height="14px" viewBox="0 0 17 14" version="1.1" xmlns="http://www.w3.org/2000/svg" xmlns:xlink="http://www.w3.org/1999/xlink">
    <title>右对齐</title>
    <g id="考试系统_V1.0.1" stroke="none" stroke-width="1" fill="none" fill-rule="evenodd">
        <g id="1-2-1考试管理/创建考试" transform="translate(-908.000000, -540.000000)" fill="#4A4A51" fill-rule="nonzero">
            <g id="dropdown_basic_hover_active" transform="translate(892.000000, 462.000000)">
                <g id="编组" transform="translate(15.000000, 75.000000)">
                    <path d="M16.7654995,15 C17.2027249,15 17.5571662,15.3544412 17.5571662,15.7916667 C17.5571662,16.1924566 17.2593371,16.5236849 16.872924,16.5761063 L16.7654995,16.5833333 L6.45299952,16.5833333 C6.01577409,16.5833333 5.66133285,16.2288921 5.66133285,15.7916667 C5.66133285,15.3908767 5.95916195,15.0596484 6.34557504,15.007227 L6.45299952,15 L16.7654995,15 Z M16.8333333,11 C17.2705588,11 17.625,11.3544412 17.625,11.7916667 C17.625,12.1924566 17.3271709,12.5236849 16.9407578,12.5761063 L16.8333333,12.5833333 L2.45299952,12.5833333 C2.01577409,12.5833333 1.66133285,12.2288921 1.66133285,11.7916667 C1.66133285,11.3908767 1.95916195,11.0596484 2.34557504,11.007227 L2.45299952,11 L16.8333333,11 Z M16.5571662,7 C16.9943916,7 17.3488329,7.35444124 17.3488329,7.79166667 C17.3488329,8.19245664 17.0510038,8.5236849 16.6645907,8.57610635 L16.5571662,8.58333333 L7.45299952,8.58333333 C7.01577409,8.58333333 6.66133285,8.22889209 6.66133285,7.79166667 C6.66133285,7.39087669 6.95916195,7.05964843 7.34557504,7.00722698 L7.45299952,7 L16.5571662,7 Z M16.7029995,3 C17.1402249,3 17.4946662,3.35444124 17.4946662,3.79166667 C17.4946662,4.19245664 17.1968371,4.5236849 16.810424,4.57610635 L16.7029995,4.58333333 L2.45299952,4.58333333 C2.01577409,4.58333333 1.66133285,4.22889209 1.66133285,3.79166667 C1.66133285,3.39087669 1.95916195,3.05964843 2.34557504,3.00722698 L2.45299952,3 L16.7029995,3 Z" id="右对齐"></path>
                </g>
            </g>
        </g>
    </g>
</svg>