<?xml version="1.0" encoding="UTF-8"?>
<svg width="17px" height="14px" viewBox="0 0 17 14" version="1.1" xmlns="http://www.w3.org/2000/svg" xmlns:xlink="http://www.w3.org/1999/xlink">
    <title>两端对齐</title>
    <g id="考试系统_V1.0.1" stroke="none" stroke-width="1" fill="none" fill-rule="evenodd">
        <g id="1-2-1考试管理/创建考试" transform="translate(-908.000000, -574.000000)" fill="#4A4A51" fill-rule="nonzero">
            <g id="dropdown_basic_hover_active" transform="translate(892.000000, 462.000000)">
                <g id="编组" transform="translate(24.500000, 118.500000) scale(-1, 1) translate(-24.500000, -118.500000) translate(15.000000, 109.000000)">
                    <path d="M16.7079342,14.6458333 C17.1451596,14.6458333 17.4996009,15.0002746 17.4996009,15.4375 C17.4996009,15.83829 17.2017718,16.1695182 16.8153587,16.2219397 L16.7079342,16.2291667 L2.38584243,16.2291667 C1.94861701,16.2291667 1.59417577,15.8747254 1.59417577,15.4375 C1.59417577,15.03671 1.89200486,14.7054818 2.27841796,14.6530603 L2.38584243,14.6458333 L16.7079342,14.6458333 Z M16.8333333,11 C17.2705588,11 17.625,11.3544412 17.625,11.7916667 C17.625,12.1924566 17.3271709,12.5236849 16.9407578,12.5761063 L16.8333333,12.5833333 L2.20833333,12.5833333 C1.77110791,12.5833333 1.41666667,12.2288921 1.41666667,11.7916667 C1.41666667,11.3908767 1.71449576,11.0596484 2.10090886,11.007227 L2.20833333,11 L16.8333333,11 Z M16.55646,7 C16.9936855,7 17.3481267,7.35444124 17.3481267,7.79166667 C17.3481267,8.19245664 17.0502976,8.5236849 16.6638845,8.57610635 L16.55646,8.58333333 L2.20833333,8.58333333 C1.77110791,8.58333333 1.41666667,8.22889209 1.41666667,7.79166667 C1.41666667,7.39087669 1.71449576,7.05964843 2.10090886,7.00722698 L2.20833333,7 L16.55646,7 Z M16.4583333,3 C16.8955588,3 17.25,3.35444124 17.25,3.79166667 C17.25,4.19245664 16.9521709,4.5236849 16.5657578,4.57610635 L16.4583333,4.58333333 L2.20833333,4.58333333 C1.77110791,4.58333333 1.41666667,4.22889209 1.41666667,3.79166667 C1.41666667,3.39087669 1.71449576,3.05964843 2.10090886,3.00722698 L2.20833333,3 L16.4583333,3 Z" id="两端对齐"></path>
                </g>
            </g>
        </g>
    </g>
</svg>