<?xml version="1.0" encoding="UTF-8"?>
<svg width="17px" height="15px" viewBox="0 0 17 15" version="1.1" xmlns="http://www.w3.org/2000/svg" xmlns:xlink="http://www.w3.org/1999/xlink">
    <title>减少缩进</title>
    <g id="考试系统_V1.0.1" stroke="none" stroke-width="1" fill="none" fill-rule="evenodd">
        <g id="1-2-1考试管理/创建考试" transform="translate(-1060.000000, -505.000000)" fill="#4A4A51" fill-rule="nonzero">
            <g id="dropdown_basic_hover_active备份" transform="translate(1044.000000, 462.000000)">
                <g id="编组" transform="translate(15.000000, 41.161984)">
                    <path d="M16.625,14.6458333 C17.0622254,14.6458333 17.4166667,15.0002746 17.4166667,15.4375 C17.4166667,15.83829 17.1188376,16.1695182 16.7324245,16.2219397 L16.625,16.2291667 L2.375,16.2291667 C1.93777457,16.2291667 1.58333333,15.8747254 1.58333333,15.4375 C1.58333333,15.03671 1.88116243,14.7054818 2.26757552,14.6530603 L2.375,14.6458333 L16.625,14.6458333 Z M16.625,10.6875 C17.0622254,10.6875 17.4166667,11.0419412 17.4166667,11.4791667 C17.4166667,11.8799566 17.1188376,12.2111849 16.7324245,12.2636063 L16.625,12.2708333 L7.52083333,12.2708333 C7.08360791,12.2708333 6.72916667,11.9163921 6.72916667,11.4791667 C6.72916667,11.0783767 7.02699576,10.7471484 7.41340886,10.694727 L7.52083333,10.6875 L16.625,10.6875 Z M4.91395954,6.96104046 C5.19501868,7.24209961 5.22056952,7.68191128 4.99061203,7.99183452 L4.91395954,8.0806262 L3.494,9.5 L4.91395954,10.9193738 C5.19501868,11.2004329 5.22056952,11.6402446 4.99061203,11.9501679 L4.91395954,12.0389595 C4.63290039,12.3200187 4.19308872,12.3455695 3.88316548,12.115612 L3.7943738,12.0389595 L1.81520713,10.0597929 C1.53414798,9.77873372 1.50859715,9.33892205 1.73855464,9.02899881 L1.81520713,8.94020713 L3.7943738,6.96104046 C4.10353886,6.6518754 4.60479447,6.6518754 4.91395954,6.96104046 Z M16.625,6.72916667 C17.0622254,6.72916667 17.4166667,7.08360791 17.4166667,7.52083333 C17.4166667,7.92162331 17.1188376,8.25285157 16.7324245,8.30527302 L16.625,8.3125 L7.52083333,8.3125 C7.08360791,8.3125 6.72916667,7.95805876 6.72916667,7.52083333 C6.72916667,7.12004336 7.02699576,6.7888151 7.41340886,6.73639365 L7.52083333,6.72916667 L16.625,6.72916667 Z M16.625,2.77083333 C17.0622254,2.77083333 17.4166667,3.12527457 17.4166667,3.5625 C17.4166667,3.96328997 17.1188376,4.29451824 16.7324245,4.34693968 L16.625,4.35416667 L2.375,4.35416667 C1.93777457,4.35416667 1.58333333,3.99972543 1.58333333,3.5625 C1.58333333,3.16171003 1.88116243,2.83048176 2.26757552,2.77806032 L2.375,2.77083333 L16.625,2.77083333 Z" id="减少缩进"></path>
                </g>
            </g>
        </g>
    </g>
</svg>