<?xml version="1.0" encoding="UTF-8"?>
<svg width="18px" height="15px" viewBox="0 0 18 15" version="1.1" xmlns="http://www.w3.org/2000/svg" xmlns:xlink="http://www.w3.org/1999/xlink">
    <title>行距</title>
    <g id="考试系统_V1.0.1" stroke="none" stroke-width="1" fill="none" fill-rule="evenodd">
        <g id="1-2-1考试管理/创建考试" transform="translate(-1066.000000, -278.000000)" fill="#4A4A51" fill-rule="nonzero">
            <g id="基本信息" transform="translate(210.000000, 58.000000)">
                <g id="编组-2备份-2" transform="translate(54.000000, 201.000000)">
                    <g id="toolbar" transform="translate(84.000000, 13.000000)">
                        <g transform="translate(0.000000, -0.000000)" id="编组-7">
                            <g transform="translate(0.000000, -0.000000)">
                                <g id="编组-10" transform="translate(714.000000, 0.000000)">
                                    <g id="上角标备份-10" transform="translate(-0.000000, 0.161984)">
                                        <g id="编组" transform="translate(4.000000, 4.000000)">
                                            <path d="M0.914415478,12.8739713 C1.22433872,12.6440138 1.66415039,12.6695646 1.94520954,12.9506238 L1.94520954,12.9506238 L3.36458333,14.3705833 L4.78395713,12.9506238 L4.87274881,12.8739713 C5.18267205,12.6440138 5.62248372,12.6695646 5.90354287,12.9506238 C6.21270793,13.2597889 6.21270793,13.7610445 5.90354287,14.0702095 L5.90354287,14.0702095 L3.9243762,16.0493762 L3.83558452,16.1260287 C3.52566128,16.3559862 3.08584961,16.3304354 2.80479046,16.0493762 L2.80479046,16.0493762 L0.825623798,14.0702095 L0.748971303,13.9814179 C0.519013817,13.6714946 0.544564649,13.2316829 0.825623798,12.9506238 L0.825623798,12.9506238 Z M16.6208333,14.6458333 C17.0580588,14.6458333 17.4125,15.0002746 17.4125,15.4375 C17.4125,15.83829 17.1146709,16.1695182 16.7282578,16.2219397 L16.6208333,16.2291667 L7.52083333,16.2291667 C7.08360791,16.2291667 6.72916667,15.8747254 6.72916667,15.4375 C6.72916667,15.03671 7.02699576,14.7054818 7.41340886,14.6530603 L7.52083333,14.6458333 L16.6208333,14.6458333 Z M16.625,10.6875 C17.0622254,10.6875 17.4166667,11.0419412 17.4166667,11.4791667 C17.4166667,11.8799566 17.1188376,12.2111849 16.7324245,12.2636063 L16.625,12.2708333 L7.52083333,12.2708333 C7.08360791,12.2708333 6.72916667,11.9163921 6.72916667,11.4791667 C6.72916667,11.0783767 7.02699576,10.7471484 7.41340886,10.694727 L7.52083333,10.6875 L16.625,10.6875 Z M16.625,6.72916667 C17.0622254,6.72916667 17.4166667,7.08360791 17.4166667,7.52083333 C17.4166667,7.92162331 17.1188376,8.25285157 16.7324245,8.30527302 L16.625,8.3125 L7.52083333,8.3125 C7.08360791,8.3125 6.72916667,7.95805876 6.72916667,7.52083333 C6.72916667,7.12004336 7.02699576,6.7888151 7.41340886,6.73639365 L7.52083333,6.72916667 L16.625,6.72916667 Z M3.83558452,2.8739713 L3.9243762,2.9506238 L5.90354287,4.92979046 C6.21270793,5.23895553 6.21270793,5.74021114 5.90354287,6.0493762 C5.62248372,6.33043535 5.18267205,6.35598618 4.87274881,6.1260287 L4.78395713,6.0493762 L3.36458333,4.62941667 L1.94520954,6.0493762 C1.66415039,6.33043535 1.22433872,6.35598618 0.914415478,6.1260287 L0.825623798,6.0493762 C0.544564649,5.76831705 0.519013817,5.32850539 0.748971303,5.01858214 L0.825623798,4.92979046 L2.80479046,2.9506238 C3.08584961,2.66956465 3.52566128,2.64401382 3.83558452,2.8739713 Z M16.6208333,2.77083333 C17.0580588,2.77083333 17.4125,3.12527457 17.4125,3.5625 C17.4125,3.96328997 17.1146709,4.29451824 16.7282578,4.34693968 L16.6208333,4.35416667 L7.52083333,4.35416667 C7.08360791,4.35416667 6.72916667,3.99972543 6.72916667,3.5625 C6.72916667,3.16171003 7.02699576,2.83048176 7.41340886,2.77806032 L7.52083333,2.77083333 L16.6208333,2.77083333 Z" id="行距"></path>
                                        </g>
                                    </g>
                                </g>
                            </g>
                        </g>
                    </g>
                </g>
            </g>
        </g>
    </g>
</svg>