<?xml version="1.0" encoding="UTF-8"?>
<svg width="19px" height="17px" viewBox="0 0 19 17" version="1.1" xmlns="http://www.w3.org/2000/svg" xmlns:xlink="http://www.w3.org/1999/xlink">
    <title>插入</title>
    <g id="考试系统_V1.0.1" stroke="none" stroke-width="1" fill="none" fill-rule="evenodd">
        <g id="1-2-1考试管理/创建考试" transform="translate(-1119.000000, -278.000000)" fill="#4A4A51" fill-rule="nonzero">
            <g id="基本信息" transform="translate(210.000000, 58.000000)">
                <g id="编组-2备份-2" transform="translate(54.000000, 201.000000)">
                    <g id="toolbar" transform="translate(84.000000, 13.000000)">
                        <g transform="translate(0.000000, -0.000000)" id="编组-7">
                            <g transform="translate(0.000000, -0.000000)">
                                <g id="编组-9备份" transform="translate(767.000000, 0.000000)">
                                    <g id="上角标备份-9" transform="translate(-0.000000, 0.161984)">
                                        <g id="编组" transform="translate(3.000000, 4.000000)">
                                            <path d="M13.4707916,6.4291689 C16.6685203,6.4291689 19.2607916,9.0214402 19.2607916,12.2191689 C19.2607916,15.4168976 16.6685203,18.0091689 13.4707916,18.0091689 C10.2730629,18.0091689 7.68079156,15.4168976 7.68079156,12.2191689 C7.68079156,9.0214402 10.2730629,6.4291689 13.4707916,6.4291689 Z M13.4707916,8.0091689 C11.1456728,8.0091689 9.26079156,9.8940501 9.26079156,12.2191689 C9.26079156,14.5442877 11.1456728,16.4291689 13.4707916,16.4291689 C15.7959104,16.4291689 17.6807916,14.5442877 17.6807916,12.2191689 C17.6807916,9.8940501 15.7959104,8.0091689 13.4707916,8.0091689 Z M6.92708333,14.6458333 C7.36430876,14.6458333 7.71875,15.0002746 7.71875,15.4375 C7.71875,15.83829 7.4209209,16.1695182 7.03450781,16.2219397 L6.92708333,16.2291667 L2.375,16.2291667 C1.93777457,16.2291667 1.58333333,15.8747254 1.58333333,15.4375 C1.58333333,15.03671 1.88116243,14.7054818 2.26757552,14.6530603 L2.375,14.6458333 L6.92708333,14.6458333 Z M13.4707916,9.25694649 C13.8715815,9.25694649 14.2028098,9.55477559 14.2552312,9.94118868 L14.2624582,10.0486132 L14.2623333,11.3519465 L15.5665831,11.3527381 C16.0038086,11.3527381 16.3582498,11.7071793 16.3582498,12.1444047 C16.3582498,12.5451947 16.0604207,12.876423 15.6740076,12.9288444 L15.5665831,12.9360714 L14.2623333,12.9359465 L14.2624582,14.2401963 C14.2624582,14.6774217 13.908017,15.031863 13.4707916,15.031863 C13.0700016,15.031863 12.7387733,14.7340339 12.6863519,14.3476208 L12.6791249,14.2401963 L12.6783333,12.9359465 L11.375,12.9360714 C10.9377746,12.9360714 10.5833333,12.5816302 10.5833333,12.1444047 C10.5833333,11.7436147 10.8811624,11.4123865 11.2675755,11.359965 L11.375,11.3527381 L12.6783333,11.3519465 L12.6791249,10.0486132 C12.6791249,9.61138773 13.0335661,9.25694649 13.4707916,9.25694649 Z M5.6875,10.6875 C6.12472543,10.6875 6.47916667,11.0419412 6.47916667,11.4791667 C6.47916667,11.8799566 6.18133757,12.2111849 5.79492448,12.2636063 L5.6875,12.2708333 L2.375,12.2708333 C1.93777457,12.2708333 1.58333333,11.9163921 1.58333333,11.4791667 C1.58333333,11.0783767 1.88116243,10.7471484 2.26757552,10.694727 L2.375,10.6875 L5.6875,10.6875 Z M8,6.72916667 C8.43722543,6.72916667 8.79166667,7.08360791 8.79166667,7.52083333 C8.79166667,7.92162331 8.49383757,8.25285157 8.10742448,8.30527302 L8,8.3125 L2.375,8.3125 C1.93777457,8.3125 1.58333333,7.95805876 1.58333333,7.52083333 C1.58333333,7.12004336 1.88116243,6.7888151 2.26757552,6.73639365 L2.375,6.72916667 L8,6.72916667 Z M16.625,2.77083333 C17.0622254,2.77083333 17.4166667,3.12527457 17.4166667,3.5625 C17.4166667,3.96328997 17.1188376,4.29451824 16.7324245,4.34693968 L16.625,4.35416667 L2.375,4.35416667 C1.93777457,4.35416667 1.58333333,3.99972543 1.58333333,3.5625 C1.58333333,3.16171003 1.88116243,2.83048176 2.26757552,2.77806032 L2.375,2.77083333 L16.625,2.77083333 Z" id="插入"></path>
                                        </g>
                                    </g>
                                </g>
                            </g>
                        </g>
                    </g>
                </g>
            </g>
        </g>
    </g>
</svg>