<?xml version="1.0" encoding="UTF-8"?>
<svg width="17px" height="15px" viewBox="0 0 17 15" version="1.1" xmlns="http://www.w3.org/2000/svg" xmlns:xlink="http://www.w3.org/1999/xlink">
    <title>回退-dis</title>
    <g id="考试系统_V1.0.1" stroke="none" stroke-width="1" fill="none" fill-rule="evenodd">
        <g id="1-2-1考试管理/创建考试" transform="translate(-353.000000, -277.000000)" fill="#C4C4C4" fill-rule="nonzero">
            <g id="基本信息" transform="translate(210.000000, 58.000000)">
                <g id="编组-2备份-2" transform="translate(54.000000, 201.000000)">
                    <g id="toolbar" transform="translate(84.000000, 13.000000)">
                        <g id="编组" transform="translate(5.208333, 5.208319)">
                            <path d="M4.1222217,5.37772948 C4.40327683,5.65879264 4.42882138,6.09860467 4.19885947,6.40852463 L4.1222057,6.49731521 C3.84114254,6.77837035 3.40133051,6.8039149 3.09141055,6.57395298 L3.00261997,6.49729922 L0.231865801,3.72646589 L0.164953695,3.65044492 C0.160028992,3.64407436 0.155199264,3.63762666 0.150466632,3.63110392 C0.147262085,3.62684324 0.144222754,3.62257095 0.141231238,3.61827615 L0.150466632,3.63110392 C0.134241937,3.60874229 0.119158415,3.58549885 0.105301563,3.5614591 C0.09416707,3.54238642 0.0839800193,3.52283786 0.0746678485,3.50298953 C0.0685756044,3.48980987 0.0625704701,3.47604537 0.0569517526,3.46208381 C0.0507106605,3.4467149 0.0451130316,3.43139183 0.0400059335,3.41594611 C0.0344574228,3.39911578 0.0293841337,3.38187855 0.0248921789,3.36440805 C0.0196557686,3.3440203 0.0152190753,3.32331364 0.0116197482,3.30249616 C0.00932084565,3.28929271 0.00735218686,3.27588331 0.00572401083,3.2623691 C0.00280456635,3.23811745 0.000996652669,3.21372776 0.000310468294,3.18931993 C0.000111632311,3.18217374 0,3.17444042 0,3.16668101 L8.00632716e-05,3.15530131 C0.000419870674,3.13195875 0.00178436578,3.10863548 0.00417071237,3.08540533 L0,3.16668101 C0,3.12670814 0.00296253979,3.0874272 0.00868003202,3.04904579 C0.0120714477,3.02672279 0.0164837303,3.00392609 0.0218970071,2.98133041 C0.024681301,2.96942663 0.0276576104,2.95817061 0.0308726093,2.94701574 C0.0374538547,2.92429845 0.0451227242,2.90151921 0.0538476434,2.87907001 C0.0576798596,2.86929292 0.0616401652,2.8597113 0.0657809216,2.85022651 C0.0759713769,2.82665413 0.0874507997,2.80343298 0.100127437,2.78072152 C0.10460273,2.77301862 0.10904162,2.76538747 0.11360301,2.75783864 C0.123793568,2.74063486 0.134808214,2.72385947 0.14652046,2.70744375 C0.158660265,2.69070538 0.171538529,2.67407067 0.18504509,2.65798111 C0.188578984,2.65357438 0.19216135,2.64940649 0.195793881,2.64526856 L0.207007551,2.63290404 C0.224691035,2.61354576 0.243323112,2.59506876 0.262830231,2.57754658 L0.276448343,2.56561014 L3.04720251,0.190610145 C3.37916479,-0.0939370782 3.87894448,-0.0554995838 4.1634917,0.276462691 C4.42432666,0.580761443 4.41376473,1.02607344 4.15449758,1.31735274 L4.07763916,1.39275188 L2.93,2.375 L9.89337917,2.37501435 C13.0433329,2.37501435 15.7061673,4.93588264 15.828932,8.0837477 C15.9557424,11.3354599 13.3428253,14.1235237 10.1144261,14.2458318 L9.89337917,14.2500143 L3.16603333,14.2500143 C2.72880791,14.2500143 2.37436667,13.8955731 2.37436667,13.4583477 C2.37436667,13.0575577 2.67219576,12.7263294 3.05860886,12.673908 L3.16603333,12.666681 L9.89337917,12.666681 C12.3245093,12.666681 14.3414545,10.572575 14.2468014,8.14544872 C14.1598949,5.91704049 12.3102328,4.07321143 10.1014608,3.9635105 L9.89337917,3.95834768 L2.702,3.958 L4.1222217,5.37772948 Z" id="回退-dis"></path>
                        </g>
                    </g>
                </g>
            </g>
        </g>
    </g>
</svg>