<?xml version="1.0" encoding="UTF-8"?>
<svg width="15px" height="16px" viewBox="0 0 15 16" version="1.1" xmlns="http://www.w3.org/2000/svg" xmlns:xlink="http://www.w3.org/1999/xlink">
    <title>格式刷</title>
    <g id="考试系统_V1.0.1" stroke="none" stroke-width="1" fill="none" fill-rule="evenodd">
        <g id="1-2-1考试管理/创建考试" transform="translate(-414.000000, -277.000000)" fill="#4A4A51" fill-rule="nonzero">
            <g id="基本信息" transform="translate(210.000000, 58.000000)">
                <g id="编组-2备份-2" transform="translate(54.000000, 201.000000)">
                    <g id="toolbar" transform="translate(84.000000, 13.000000)">
                        <g id="撤销备份-2" transform="translate(60.000000, 0.000000)">
                            <g id="编组" transform="translate(5.000000, 5.000000)">
                                <path d="M12.0833333,6.66666667 C12.0833333,7.08088023 11.7475469,7.41666667 11.3333333,7.41666667 L11.3333333,7.41666667 L2,7.41666667 C1.58578644,7.41666667 1.25,7.08088023 1.25,6.66666667 L1.25,6.66666667 L1.25,1.66666667 C1.25,1.2524531 1.58578644,0.916666667 2,0.916666667 L2,0.916666667 L11.3333333,0.916666667 C11.7475469,0.916666667 12.0833333,1.2524531 12.0833333,1.66666667 L12.0833333,1.66666667 L12.083,3.24966667 L14.3333333,3.25 C14.7130291,3.25 15.0268243,3.53215388 15.0764867,3.89822944 L15.0833333,4 L15.0833333,9.36713333 C15.0833333,9.70993591 14.8519485,10.0042832 14.5289033,10.0912487 L14.4293797,10.110958 L7.083,11.059 L7.08333333,14.3333333 C7.08333333,14.7130291 6.80117945,15.0268243 6.43510389,15.0764867 L6.33333333,15.0833333 C5.95363757,15.0833333 5.63984237,14.8011795 5.59017995,14.4351039 L5.58333333,14.3333333 L5.58333333,10.4001333 C5.58333333,10.0573308 5.81471815,9.7629835 6.13776334,9.67601797 L6.23728698,9.65630869 L13.583,8.707 L13.583,4.75 L12.083,4.74966667 Z M10.583,2.416 L2.75,2.416 L2.75,5.916 L10.583,5.916 L10.583,2.416 Z" id="格式刷"></path>
                            </g>
                        </g>
                    </g>
                </g>
            </g>
        </g>
    </g>
</svg>