<?xml version="1.0" encoding="UTF-8"?>
<svg width="19px" height="15px" viewBox="0 0 19 15" version="1.1" xmlns="http://www.w3.org/2000/svg" xmlns:xlink="http://www.w3.org/1999/xlink">
    <title>清除</title>
    <g id="考试系统_V1.0.1" stroke="none" stroke-width="1" fill="none" fill-rule="evenodd">
        <g id="1-2-1考试管理/创建考试" transform="translate(-441.000000, -277.000000)" fill="#4A4A51" fill-rule="nonzero">
            <g id="基本信息" transform="translate(210.000000, 58.000000)">
                <g id="编组-2备份-2" transform="translate(54.000000, 201.000000)">
                    <g id="toolbar" transform="translate(84.000000, 13.000000)">
                        <g id="撤销备份-3" transform="translate(90.000000, 0.000000)">
                            <g id="编组" transform="translate(3.000000, 3.000000)">
                                <path d="M12.157771,2.17791844 C12.5069546,1.91478937 13.0033322,1.98455038 13.2664612,2.33373402 L13.2664612,2.33373402 L18.358382,9.0909336 C18.6215107,9.44011671 18.5517503,9.93649339 18.2025677,10.1996227 L18.2025677,10.1996227 L12.6659334,14.371093 L11.6625208,15.0694594 L17.6404287,15.0701667 C18.0776542,15.0701667 18.4320979,15.4246054 18.4320979,15.8618308 C18.4320979,16.2626208 18.1342712,16.59385 17.7478582,16.6462727 L17.6404338,16.6535 L9.37852082,16.6534594 L9.3658713,16.6546083 L5.18448588,16.6542917 C4.97146347,16.6542755 4.76904521,16.568517 4.6213696,16.4190245 L4.55229803,16.3390689 L0.976976371,11.5944409 C0.73577762,11.2743549 0.774298641,10.8305875 1.0513544,10.5561743 L1.1327982,10.4857534 L5.26306966,7.37339509 Z M5.46052082,9.20645937 L2.717,11.273 L5.578,15.07 L9.08752082,15.0694594 L9.76852082,14.5244594 L5.46052082,9.20645937 Z M12.478,3.918 L6.726,8.253 L11.037,13.576 L11.7372365,13.0890731 L16.617,9.411 L12.478,3.918 Z" id="清除"></path>
                            </g>
                        </g>
                    </g>
                </g>
            </g>
        </g>
    </g>
</svg>