<?xml version="1.0" encoding="UTF-8"?>
<svg width="10px" height="14px" viewBox="0 0 10 14" version="1.1" xmlns="http://www.w3.org/2000/svg" xmlns:xlink="http://www.w3.org/1999/xlink">
    <title>加粗</title>
    <g id="考试系统_V1.0.1" stroke="none" stroke-width="1" fill="none" fill-rule="evenodd">
        <g id="1-2-1考试管理/创建考试" transform="translate(-674.000000, -278.000000)" fill="#4A4A51" fill-rule="nonzero">
            <g id="基本信息" transform="translate(210.000000, 58.000000)">
                <g id="编组-2备份-2" transform="translate(54.000000, 201.000000)">
                    <g id="toolbar" transform="translate(84.000000, 13.000000)">
                        <g id="编组" transform="translate(318.000000, 0.000000)">
                            <g id="cuti" transform="translate(0.000000, 0.161984)">
                                <path d="M15.518566,12.101594 C16.2586285,12.2926628 16.9134336,12.7235486 17.3793483,13.3260572 C17.792873,13.8919651 18.0105187,14.5759081 17.999609,15.2752026 C18.0048257,15.9885938 17.8103924,16.6893838 17.4380216,17.2993151 C17.0569934,17.911946 16.4864725,18.3853922 15.8119326,18.6487235 C14.9216928,18.9722891 13.9762995,19.1194402 13.0291412,19.0818669 L8.83819019,19.0818669 C8.37527053,19.0818669 8,18.7089344 8,18.2488988 L8,6.79558708 C8,6.33555149 8.37527053,5.96261896 8.83819019,5.96261896 L12.953704,5.96261896 C14.5574413,5.96261896 15.6750282,6.30968901 16.3064648,7.00382911 C16.9259612,7.6155688 17.280815,8.4433834 17.2955292,9.31115081 C17.2999445,9.87345449 17.1429324,10.4253524 16.8429065,10.9021199 C16.5168951,11.4120723 16.059676,11.8261822 15.518566,12.101594 L15.518566,12.101594 Z M10.1876764,11.4602086 L12.6268099,11.4602086 C13.131621,11.4676619 13.636204,11.4342326 14.1355522,11.3602524 C14.5313741,11.2961081 14.8990247,11.1163278 15.1916718,10.8438122 C15.5291348,10.495096 15.6973833,10.0178154 15.6526765,9.53605221 C15.680357,9.04200365 15.5048934,8.55797552 15.1665261,8.19497354 C14.8645257,7.90289319 14.4772071,7.71335634 14.0601151,7.65354424 C13.5046147,7.57869831 12.9442552,7.54528621 12.3837347,7.55358807 L10.1876764,7.55358807 C9.95621656,7.55358807 9.76858129,7.74005434 9.76858129,7.97007214 L9.76858129,11.0437245 C9.76858129,11.2737423 9.95621656,11.4602086 10.1876764,11.4602086 L10.1876764,11.4602086 Z M10.1876764,17.5242165 L13.0542868,17.5242165 C13.9152922,17.6105391 14.7798751,17.3986825 15.5018022,16.9244795 C15.9721091,16.50067 16.2246852,15.8884688 16.1891182,15.2585432 C16.2232114,14.6201647 15.953082,14.0030466 15.4598927,13.592607 C14.6698467,13.1182592 13.7465236,12.910783 12.8279755,13.0011996 L10.1876764,13.0011996 C9.95621656,13.0011996 9.76858129,13.1876659 9.76858129,13.4176837 L9.76858129,17.1077324 C9.76858129,17.3377502 9.95621656,17.5242165 10.1876764,17.5242165 L10.1876764,17.5242165 Z" id="加粗"></path>
                            </g>
                        </g>
                    </g>
                </g>
            </g>
        </g>
    </g>
</svg>