<?xml version="1.0" encoding="UTF-8"?>
<svg width="6px" height="13px" viewBox="0 0 6 13" version="1.1" xmlns="http://www.w3.org/2000/svg" xmlns:xlink="http://www.w3.org/1999/xlink">
    <title>斜体</title>
    <g id="考试系统_V1.0.1" stroke="none" stroke-width="1" fill="none" fill-rule="evenodd">
        <g id="1-2-1考试管理/创建考试" transform="translate(-706.000000, -278.000000)" fill="#4A4A51" fill-rule="nonzero">
            <g id="基本信息" transform="translate(210.000000, 58.000000)">
                <g id="编组-2备份-2" transform="translate(54.000000, 201.000000)">
                    <g id="toolbar" transform="translate(84.000000, 13.000000)">
                        <g id="编组" transform="translate(318.000000, 0.000000)">
                            <g id="xieti" transform="translate(30.000000, 0.000000)">
                                <path d="M13.0954874,8.2695602 C13.1583103,8.08411929 13.1139364,7.87938132 12.9798645,7.73608432 C12.7514001,7.58558389 12.4856939,7.50040621 12.2117985,7.48986467 C12.072587,7.47782231 11.9634699,7.365887 11.9557764,7.22723039 C11.9505645,7.18910466 11.9505645,7.15045362 11.9557764,7.11232789 L11.9557764,6.95638879 C12.3191625,6.99468962 12.6770428,7.02204736 13.0294172,7.038462 C13.3817916,7.05487665 13.7093897,7.05487665 14.0122114,7.038462 L14.9371942,7.038462 C15.3005803,7.038462 15.6446959,7.01110426 15.9695411,6.95638879 C15.9776598,7.04648907 15.9776598,7.13713011 15.9695411,7.22723039 C15.9797994,7.29878106 15.9567875,7.37108784 15.9069935,7.42376406 C15.8571996,7.47644029 15.7860183,7.50377895 15.713519,7.49807199 C15.4211519,7.5129328 15.137201,7.60040916 14.8876415,7.75249897 C14.7221965,7.88955447 14.6134016,8.08241204 14.5820669,8.29418217 L12.8807592,17.5438333 C12.8154721,17.7279504 12.8638291,17.9329883 13.0046409,18.0691019 C13.2554536,18.2184233 13.5386934,18.3056806 13.8305183,18.3235289 C13.9699532,18.3364879 14.0750076,18.4552878 14.0700228,18.5943705 C14.0789635,18.6899164 14.0789635,18.7860807 14.0700228,18.8816267 C13.7066367,18.8433259 13.3377448,18.8159681 12.963347,18.7995535 L11.0307936,18.7995535 C10.6729134,18.7995535 10.3315507,18.8269112 10.0067055,18.8816267 C9.99776482,18.7860807 9.99776482,18.6899164 10.0067055,18.5943705 C9.99981004,18.5320433 10.0188415,18.4696227 10.0593877,18.4215804 C10.0999338,18.3735382 10.1584731,18.3440467 10.2214337,18.3399435 C10.5118823,18.3093508 10.7929492,18.2199698 11.0473112,18.0773092 C11.2240682,17.9498791 11.3428461,17.7580675 11.3776622,17.5438333 L13.0954874,8.2695602 Z" id="斜体"></path>
                            </g>
                        </g>
                    </g>
                </g>
            </g>
        </g>
    </g>
</svg>