<?xml version="1.0" encoding="UTF-8"?>
<svg width="12px" height="13px" viewBox="0 0 12 13" version="1.1" xmlns="http://www.w3.org/2000/svg" xmlns:xlink="http://www.w3.org/1999/xlink">
    <title>下划线</title>
    <g id="考试系统_V1.0.1" stroke="none" stroke-width="1" fill="none" fill-rule="evenodd">
        <g id="1-2-1考试管理/创建考试" transform="translate(-733.000000, -278.000000)" fill="#4A4A51" fill-rule="nonzero">
            <g id="基本信息" transform="translate(210.000000, 58.000000)">
                <g id="编组-2备份-2" transform="translate(54.000000, 201.000000)">
                    <g id="toolbar" transform="translate(84.000000, 13.000000)">
                        <g id="编组" transform="translate(318.000000, 0.000000)">
                            <g id="xiahuaxian" transform="translate(60.000000, 0.000000)">
                                <path d="M7.75,18.8816267 C7.33578644,18.8816267 7,18.5479323 7,18.1362993 C7,17.7246664 7.33578644,17.390972 7.75,17.390972 L18.25,17.390972 C18.6642136,17.390972 19,17.7246664 19,18.1362993 C19,18.5479323 18.6642136,18.8816267 18.25,18.8816267 L7.75,18.8816267 Z M8.50000001,7.70171616 C8.50000001,7.29008322 8.83578645,6.95638879 9.25000001,6.95638879 C9.66421357,6.95638879 10,7.29008322 10,7.70171616 L10,12.1736804 C10,13.8202121 11.3431458,15.1549899 13,15.1549899 C14.6568542,15.1549899 16,13.8202121 16,12.1736804 L16,7.70171616 C16,7.29008322 16.3357864,6.95638879 16.75,6.95638879 C17.1642136,6.95638879 17.5,7.29008322 17.5,7.70171616 L17.5,12.1736804 C17.5,14.643478 15.4852814,16.6456446 13,16.6456446 C10.5147186,16.6456446 8.50000001,14.643478 8.50000001,12.1736804 L8.50000001,7.70171616 Z" id="下划线"></path>
                            </g>
                        </g>
                    </g>
                </g>
            </g>
        </g>
    </g>
</svg>