<?xml version="1.0" encoding="UTF-8"?>
<svg width="14px" height="14px" viewBox="0 0 14 14" version="1.1" xmlns="http://www.w3.org/2000/svg" xmlns:xlink="http://www.w3.org/1999/xlink">
    <title>删除线</title>
    <g id="考试系统_V1.0.1" stroke="none" stroke-width="1" fill="none" fill-rule="evenodd">
        <g id="1-2-1考试管理/创建考试" transform="translate(-762.000000, -278.000000)" fill="#4A4A51" fill-rule="nonzero">
            <g id="基本信息" transform="translate(210.000000, 58.000000)">
                <g id="编组-2备份-2" transform="translate(54.000000, 201.000000)">
                    <g id="toolbar" transform="translate(84.000000, 13.000000)">
                        <g id="编组" transform="translate(318.000000, 0.000000)">
                            <g id="xiahuaxian备份" transform="translate(90.000000, 0.000000)">
                                <g id="编组" transform="translate(6.250000, 6.250000)">
                                    <path d="M12.2727273,6.13636364 C12.6116293,6.13636364 12.8863636,6.41109799 12.8863636,6.75 C12.8863636,7.06066017 12.6555105,7.3174017 12.3559941,7.35803459 L12.2727273,7.36363636 L8.73858944,7.36257678 C9.25139121,7.80570381 9.6228509,8.30495045 9.84488118,8.838263 C10.7804146,11.0298672 9.211403,13.3881887 6.62840954,13.4961483 L6.44318182,13.5 L6.44318182,13.5 C4.92069608,13.5 3.77558915,12.9611277 2.98988318,12.0631716 C2.51454819,11.5199278 2.26443665,10.9742175 2.16604717,10.5806399 L2.16065979,10.557869 C2.15651744,10.5381941 2.15337585,10.5184398 2.15121244,10.4986739 L2.16604717,10.5806399 C2.1555635,10.5387031 2.14966931,10.4966951 2.14804664,10.4551458 C2.14734331,10.4373128 2.14746696,10.4191928 2.14838574,10.4011572 C2.14903502,10.386769 2.15029985,10.3720303 2.15208904,10.3574062 C2.15423522,10.3408711 2.15686674,10.3248534 2.16012141,10.3089782 C2.16328895,10.2929154 2.16728508,10.2767797 2.17191687,10.2608651 C2.17650209,10.2453845 2.18172664,10.2297252 2.1875715,10.2142957 C2.19136984,10.2041728 2.19536334,10.1944405 2.1996003,10.1848223 C2.20830618,10.1649882 2.21826034,10.1452262 2.22927541,10.126019 C2.23461582,10.116872 2.23995837,10.1081031 2.24551703,10.0994716 C2.25515623,10.0842863 2.26578096,10.0692626 2.27710174,10.0547043 C2.28678986,10.0424468 2.29666138,10.0306957 2.30697414,10.0193148 C2.31796967,10.0070274 2.32994225,9.99486885 2.34247105,9.98318067 C2.35485061,9.97169984 2.36700192,9.96122342 2.37958699,9.95121387 C2.39045947,9.9426168 2.40197551,9.93411231 2.41385056,9.92597613 C2.42911992,9.91538136 2.4447623,9.90564486 2.46091005,9.8965928 C2.46926767,9.89206534 2.47802717,9.88741999 2.4869426,9.88296239 L2.50435417,9.87447446 C2.52041546,9.86708993 2.536905,9.86035303 2.55379859,9.85430412 L2.4869426,9.88296239 C2.52199724,9.86543551 2.55792743,9.85157871 2.59429627,9.84124634 C2.60012904,9.83970646 2.60631237,9.83805904 2.61254196,9.83650171 L2.63953378,9.83024124 C2.66021957,9.82603874 2.68098761,9.82293945 2.70175938,9.82091719 L2.61254196,9.83650171 C2.65414737,9.82610088 2.69582288,9.82021728 2.73705107,9.81854045 C2.75584998,9.81776061 2.77518137,9.81791162 2.79441406,9.81896669 C2.81258587,9.81990089 2.83002171,9.82161636 2.84728713,9.82406343 C2.85905986,9.82583895 2.8711222,9.82791782 2.88310393,9.83035153 C2.90252876,9.83418302 2.92156021,9.83902342 2.94027431,9.84474596 C2.9542923,9.84911259 2.96829201,9.85393484 2.98210459,9.85925552 C2.99686029,9.86490027 3.01162347,9.87127502 3.02610586,9.87821053 C3.04009324,9.88487748 3.05375158,9.89203952 3.06714031,9.89971705 C3.08232107,9.90851792 3.09718397,9.91792605 3.11162587,9.92795674 C3.12300813,9.93571587 3.13430919,9.9441382 3.14533285,9.95296617 C3.15945987,9.96444111 3.17284849,9.97616029 3.18572642,9.9884632 C3.19661027,9.99874687 3.20733033,10.0097955 3.21766179,10.0212921 C3.22852643,10.0334116 3.23871785,10.0456586 3.24844289,10.0583281 C3.25496508,10.0669099 3.26158283,10.0760566 3.26797171,10.0854258 L3.27558837,10.096665 C3.28664584,10.1136324 3.29691421,10.1312397 3.30632926,10.1494482 L3.36079796,10.249702 L3.44630075,10.3895529 C3.46344432,10.4164062 3.48203014,10.4449275 3.50205173,10.4749604 C3.6725712,10.7307436 3.87774996,10.9872198 4.11571447,11.2251858 C4.77646258,11.8859381 5.5500434,12.2727273 6.44318182,12.2727273 C7.64003781,12.2727273 8.64536508,11.4501868 8.83036009,10.4018817 C8.88674529,10.0823656 8.86544103,9.76270051 8.7641286,9.45169192 C8.70268346,9.27516869 8.61620583,9.09897199 8.50347028,8.92608849 L8.47941164,8.88021345 C8.08213939,8.29763172 7.37086318,7.76965695 6.32803447,7.36293077 L0.613636364,7.36363636 C0.274734358,7.36363636 0,7.08890201 0,6.75 C0,6.43933983 0.230853176,6.1825983 0.530369544,6.14196541 L0.613636364,6.13636364 L12.2727273,6.13636364 Z M6.44315114,4.4408921e-16 C7.83120538,4.4408921e-16 8.93791621,0.536585442 9.76725505,1.42121943 C10.2614005,1.94831143 10.5583697,2.47626636 10.6995373,2.852726 C10.8185303,3.17005114 10.6577503,3.52375685 10.3404251,3.64274981 C10.0495438,3.75182669 9.72809259,3.62581657 9.58488253,3.35963625 L9.51394965,3.19901334 L9.44774162,3.06695865 C9.43417294,3.04141514 9.41932368,3.01420899 9.40317348,2.98549698 C9.26434344,2.73868345 9.08774534,2.49082343 8.87191114,2.26059875 C8.26304934,1.61114183 7.47131692,1.22727273 6.44315114,1.22727273 C4.26443036,1.22727273 3.31692503,2.93926267 4.38286268,4.57391151 C4.56797715,4.85779036 4.48791279,5.23798457 4.20403394,5.42309904 C3.92015509,5.60821351 3.53996088,5.52814916 3.35484641,5.24427031 C1.75310913,2.78795588 3.29611063,4.4408921e-16 6.44315114,4.4408921e-16 Z" id="删除线"></path>
                                </g>
                            </g>
                        </g>
                    </g>
                </g>
            </g>
        </g>
    </g>
</svg>