<?xml version="1.0" encoding="UTF-8"?>
<svg width="14px" height="15px" viewBox="0 0 14 15" version="1.1" xmlns="http://www.w3.org/2000/svg" xmlns:xlink="http://www.w3.org/1999/xlink">
    <title>文字颜色</title>
    <g id="考试系统_V1.0.1" stroke="none" stroke-width="1" fill="none" fill-rule="evenodd">
        <g id="1-2-1考试管理/创建考试" transform="translate(-793.000000, -278.000000)">
            <g id="基本信息" transform="translate(210.000000, 58.000000)">
                <g id="编组-2备份-2" transform="translate(54.000000, 201.000000)">
                    <g id="toolbar" transform="translate(84.000000, 13.000000)">
                        <g transform="translate(0.000000, -0.000000)" id="编组-7">
                            <g transform="translate(0.000000, -0.000000)">
                                <g id="编组" transform="translate(318.000000, 0.000000)">
                                    <g id="上角标备份-6" transform="translate(120.000000, 0.000000)">
                                        <g id="文字颜色" transform="translate(7.000000, 6.224000)">
                                            <rect id="矩形" fill="#FF0000" x="0" y="12.776" width="14" height="2"></rect>
                                            <path d="M3.412,11.776 L4.42,8.416 L8.516,8.416 L9.508,11.776 L11.476,11.776 L7.572,-7.99360578e-14 L5.428,-7.99360578e-14 L1.524,11.776 L3.412,11.776 Z M8.068,6.96 L4.852,6.96 L5.332,5.376 C5.716,4.096 6.084,2.8 6.42,1.456 L6.484,1.456 C6.852,2.784 7.204,4.096 7.604,5.376 L8.068,6.96 Z" fill="#4A4A51" fill-rule="nonzero"></path>
                                        </g>
                                    </g>
                                </g>
                            </g>
                        </g>
                    </g>
                </g>
            </g>
        </g>
    </g>
</svg>