<?xml version="1.0" encoding="UTF-8"?>
<svg width="16px" height="16px" viewBox="0 0 16 16" version="1.1" xmlns="http://www.w3.org/2000/svg" xmlns:xlink="http://www.w3.org/1999/xlink">
    <title>退出全屏</title>
    <g id="考试系统_V1.0.1" stroke="none" stroke-width="1" fill="none" fill-rule="evenodd">
        <g id="1-2-1考试管理/创建考试" transform="translate(-1197.000000, -278.000000)" fill="#4A4A51" fill-rule="nonzero">
            <g id="基本信息" transform="translate(210.000000, 58.000000)">
                <g id="退出全屏" transform="translate(982.000000, 214.161984)">
                    <g id="编组" transform="translate(4.000000, 5.000000)">
                        <path d="M7.75,9.45833333 L7.85742448,9.46556032 C8.24383757,9.51798176 8.54166667,9.84921003 8.54166667,10.25 L8.54166667,10.25 L8.54166667,14.75 L8.53443968,14.8574245 C8.48201824,15.2438376 8.15078997,15.5416667 7.75,15.5416667 L7.75,15.5416667 L7.64257552,15.5344397 C7.25616243,15.4820182 6.95833333,15.15079 6.95833333,14.75 L6.95833333,14.75 L6.95833333,12.1603333 L2.80979287,16.3097929 C2.5006278,16.6189579 1.9993722,16.6189579 1.69020713,16.3097929 C1.40914798,16.0287337 1.38359715,15.5889221 1.61355464,15.2789988 L1.69020713,15.1902071 L5.83833333,11.0403333 L3.25,11.0416667 L3.14257552,11.0344397 C2.75616243,10.9820182 2.45833333,10.65079 2.45833333,10.25 C2.45833333,9.81277457 2.81277457,9.45833333 3.25,9.45833333 L3.25,9.45833333 L7.75,9.45833333 Z M16.3097929,1.69020713 C16.590852,1.97126628 16.6164028,2.41107795 16.3864454,2.72100119 L16.3097929,2.80979287 L12.1613333,6.95733333 L14.75,6.95833333 L14.8574245,6.96556032 C15.2438376,7.01798176 15.5416667,7.34921003 15.5416667,7.75 C15.5416667,8.18722543 15.1872254,8.54166667 14.75,8.54166667 L14.75,8.54166667 L10.25,8.54166667 L10.1425755,8.53443968 C9.75616243,8.48201824 9.45833333,8.15078997 9.45833333,7.75 L9.45833333,7.75 L9.45833333,3.25 L9.46556032,3.14257552 C9.51798176,2.75616243 9.84921003,2.45833333 10.25,2.45833333 L10.25,2.45833333 L10.3574245,2.46556032 C10.7438376,2.51798176 11.0416667,2.84921003 11.0416667,3.25 L11.0416667,3.25 L11.0413333,5.83733333 L15.1902071,1.69020713 C15.4993722,1.38104207 16.0006278,1.38104207 16.3097929,1.69020713 Z" id="退出全屏"></path>
                    </g>
                </g>
            </g>
        </g>
    </g>
</svg>