<?xml version="1.0" encoding="UTF-8"?>
<svg width="16px" height="16px" viewBox="0 0 16 16" version="1.1" xmlns="http://www.w3.org/2000/svg" xmlns:xlink="http://www.w3.org/1999/xlink">
    <title>全屏</title>
    <g id="考试系统_V1.0.1" stroke="none" stroke-width="1" fill="none" fill-rule="evenodd">
        <g id="1-2-1考试管理/创建考试" transform="translate(-1160.000000, -278.000000)" fill="#4A4A51" fill-rule="nonzero">
            <g id="基本信息" transform="translate(210.000000, 58.000000)">
                <g id="编组-2备份-2" transform="translate(54.000000, 201.000000)">
                    <g id="toolbar" transform="translate(84.000000, 13.000000)">
                        <g transform="translate(0.000000, -0.000000)" id="编组-7">
                            <g transform="translate(0.000000, -0.000000)">
                                <g id="上角标备份-11" transform="translate(807.000000, 0.161984)">
                                    <g id="编组" transform="translate(4.000000, 5.000000)">
                                        <path d="M15.75,10.4583333 C16.15079,10.4583333 16.4820182,10.7561624 16.5344397,11.1425755 L16.5416667,11.25 L16.5416667,15.75 C16.5416667,16.15079 16.2438376,16.4820182 15.8574245,16.5344397 L15.75,16.5416667 L11.25,16.5416667 C10.8127746,16.5416667 10.4583333,16.1872254 10.4583333,15.75 C10.4583333,15.34921 10.7561624,15.0179818 11.1425755,14.9655603 L11.25,14.9583333 L14.958,14.958 L14.9583333,11.25 C14.9583333,10.84921 15.2561624,10.5179818 15.6425755,10.4655603 L15.75,10.4583333 Z M7.68479287,10.3152071 C7.96585202,10.5962663 7.99140285,11.0360779 7.76144536,11.3460012 L7.68479287,11.4347929 L4.16133333,14.9573333 L6.75,14.9583333 C7.15078997,14.9583333 7.48201824,15.2561624 7.53443968,15.6425755 L7.54166667,15.75 C7.54166667,16.15079 7.24383757,16.4820182 6.85742448,16.5344397 L6.75,16.5416667 L2.25,16.5416667 L2.21886219,16.5410579 C2.20313241,16.5404425 2.18741749,16.5393608 2.17173992,16.5378125 L2.25,16.5416667 C2.20259854,16.5416667 2.15617009,16.5375007 2.11106082,16.5295149 C2.09585674,16.5267706 2.07985643,16.5234403 2.06395164,16.5196114 C2.04274904,16.5145511 2.0226965,16.5088365 2.00298531,16.502369 C1.99009735,16.4981205 1.97640161,16.493233 1.96282211,16.4879569 C1.94100297,16.4794562 1.92016759,16.4702557 1.8998261,16.460207 C1.88813808,16.4544951 1.87614893,16.4482037 1.86429383,16.441584 C1.84516108,16.4308114 1.82675125,16.4194937 1.80885932,16.407465 C1.79644042,16.3992025 1.78397054,16.3902899 1.77171026,16.380972 C1.68683394,16.3165074 1.61520345,16.2351328 1.56198006,16.1418932 C1.55007293,16.1211504 1.53919621,16.099864 1.52934455,16.0782251 C1.52483475,16.0683018 1.52034777,16.0578929 1.51608047,16.0473715 C1.50813972,16.0277183 1.50108688,16.0080402 1.49483667,15.9881642 C1.48938553,15.9710312 1.48453757,15.9535827 1.4802829,15.9359031 C1.47648091,15.9198162 1.47309249,15.9034846 1.47022334,15.8870799 C1.46842651,15.8771475 1.46690208,15.867315 1.46556032,15.8574245 L1.46312823,15.8372621 C1.46048277,15.8132686 1.45893198,15.7891773 1.45847587,15.7650691 L1.45833333,15.75 L1.45833333,11.25 C1.45833333,10.8127746 1.81277457,10.4583333 2.25,10.4583333 C2.65078997,10.4583333 2.98201824,10.7561624 3.03443968,11.1425755 L3.04166667,11.25 L3.04033333,13.8383333 L6.56520713,10.3152071 C6.8743722,10.0060421 7.3756278,10.0060421 7.68479287,10.3152071 Z M15.75,1.45833333 L15.7650691,1.45847587 C15.7891773,1.45893198 15.8132686,1.46048277 15.8372621,1.46312823 L15.75,1.45833333 C15.796694,1.45833333 15.8424438,1.46237588 15.8869185,1.47013008 C15.9034846,1.47309249 15.9198162,1.47648091 15.9360484,1.48038858 C15.9535827,1.48453757 15.9710312,1.48938553 15.9882264,1.49480454 C16.0080402,1.50108688 16.0277183,1.50813972 16.0471478,1.51599521 C16.0578929,1.52034777 16.0683018,1.52483475 16.0785923,1.52953572 C16.099864,1.53919621 16.1211504,1.55007293 16.142011,1.56197473 C16.1637955,1.57448242 16.1850431,1.58800048 16.2055718,1.60247009 C16.2113403,1.60645798 16.2172378,1.61073768 16.2230886,1.61510878 C16.2828667,1.659812 16.3360543,1.71259603 16.381068,1.77192243 L16.3097929,1.69020713 C16.3468811,1.72729535 16.3795201,1.76714794 16.4077099,1.80910167 C16.4194937,1.82675125 16.4308114,1.84516108 16.4413776,1.86404834 C16.4482037,1.87614893 16.4544951,1.88813808 16.460458,1.90024797 C16.4702557,1.92016759 16.4794562,1.94100297 16.4877623,1.96228601 C16.493233,1.97640161 16.4981205,1.99009735 16.5026192,2.00389221 C16.5088365,2.0226965 16.5145511,2.04274904 16.5194787,2.06310891 C16.5234403,2.07985643 16.5267706,2.09585674 16.5296025,2.11192771 C16.5313624,2.12149655 16.5330054,2.13200288 16.5344397,2.14257552 L16.5378125,2.17173992 C16.5393608,2.18741749 16.5404425,2.20313241 16.5410579,2.21886219 L16.5416667,2.25 L16.5416667,6.75 C16.5416667,7.18722543 16.1872254,7.54166667 15.75,7.54166667 C15.34921,7.54166667 15.0179818,7.24383757 14.9655603,6.85742448 L14.9583333,6.75 L14.9573333,4.16133333 L11.4347929,7.68479287 C11.1256278,7.99395793 10.6243722,7.99395793 10.3152071,7.68479287 C10.034148,7.40373372 10.0085972,6.96392205 10.2385546,6.65399881 L10.3152071,6.56520713 L13.8383333,3.04033333 L11.25,3.04166667 C10.84921,3.04166667 10.5179818,2.74383757 10.4655603,2.35742448 L10.4583333,2.25 C10.4583333,1.84921003 10.7561624,1.51798176 11.1425755,1.46556032 L11.25,1.45833333 L15.75,1.45833333 Z M6.75,1.45833333 C7.18722543,1.45833333 7.54166667,1.81277457 7.54166667,2.25 C7.54166667,2.65078997 7.24383757,2.98201824 6.85742448,3.03443968 L6.75,3.04166667 L3.041,3.041 L3.04166667,6.75 C3.04166667,7.15078997 2.74383757,7.48201824 2.35742448,7.53443968 L2.25,7.54166667 C1.84921003,7.54166667 1.51798176,7.24383757 1.46556032,6.85742448 L1.45833333,6.75 L1.45833333,2.25 C1.45833333,1.84921003 1.75616243,1.51798176 2.14257552,1.46556032 L2.25,1.45833333 L6.75,1.45833333 Z" id="全屏"></path>
                                    </g>
                                </g>
                            </g>
                        </g>
                    </g>
                </g>
            </g>
        </g>
    </g>
</svg>