<?xml version="1.0" standalone="no"?><!DOCTYPE svg PUBLIC "-//W3C//DTD SVG 1.1//EN" "http://www.w3.org/Graphics/SVG/1.1/DTD/svg11.dtd"><svg t="1733147493060" class="icon" viewBox="0 0 1024 1024" version="1.1" xmlns="http://www.w3.org/2000/svg" p-id="1113" xmlns:xlink="http://www.w3.org/1999/xlink" width="200" height="200"><path d="M561.92 201.6H250.24c-33.92 0-61.44 23.04-61.44 51.2 0 28.16 27.52 51.2 61.44 51.2h311.04c33.92 0 61.44-23.04 61.44-51.2 0.64-28.16-26.88-51.2-60.8-51.2zM436.48 449.92H250.24c-33.92 0-61.44 23.04-61.44 51.2 0 28.16 27.52 51.2 61.44 51.2h186.24c33.92 0 61.44-23.04 61.44-51.2 0.64-28.16-27.52-51.2-61.44-51.2z m469.12 124.16c7.68 0 14.72 2.56 19.84 8.32l64.64 64.64c5.12 5.12 8.32 12.8 8.32 19.84 0 7.68-2.56 14.72-8.32 19.84l-48 54.4-107.52-107.52 51.2-51.2c5.12-5.12 12.8-8.32 19.84-8.32zM744.96 0c82.56 0 149.76 67.2 150.4 149.76v215.68L476.16 793.6c-60.16 61.44-94.08 144-94.08 230.4H174.72C92.16 1024 24.96 956.8 24.96 874.24V149.76C24.96 67.2 92.16 0 174.72 0h570.24z m55.68 661.76l108.16 108.16L645.12 1024H537.6v-108.16l263.04-254.08z" p-id="1114"></path></svg>