<?xml version="1.0" standalone="no"?><!DOCTYPE svg PUBLIC "-//W3C//DTD SVG 1.1//EN" "http://www.w3.org/Graphics/SVG/1.1/DTD/svg11.dtd"><svg t="1733147298227" class="icon" viewBox="0 0 1024 1024" version="1.1" xmlns="http://www.w3.org/2000/svg" p-id="884" xmlns:xlink="http://www.w3.org/1999/xlink" width="200" height="200"><path d="M685.37 406.08a29.32 29.32 0 0 0-28.83 12.1l-172.28 246a29.25 29.25 0 0 0-4.33 24.23v97.69a29.27 29.27 0 0 0 16.16 26.18 29.28 29.28 0 0 0 32.22 8.42l95.06-34.6a29.24 29.24 0 0 0 15-8.27 31.31 31.31 0 0 0 5.89-7.78l169.4-241.86a29.82 29.82 0 0 0-7.27-41.19L698 411.08a29.17 29.17 0 0 0-12.63-5zM749 518.34L599 732.62l-60.47 22v-65.73l149.38-213.35z" p-id="885"></path><path d="M886.24 108.75h-760a25 25 0 0 0-25 25v760a25 25 0 0 0 25 25h760a25 25 0 0 0 25-25v-760a25 25 0 0 0-25-25z m-25 760h-710v-710h710z" p-id="886"></path><path d="M226 290.07h534a25 25 0 0 0 0-50H226a25 25 0 0 0 0 50zM225.69 442.52h258.65a25 25 0 0 0 0-50H225.69a25 25 0 0 0 0 50zM231.7 607.45h127.05a25 25 0 0 0 0-50h-127a25 25 0 0 0 0 50zM360.46 703.63h-127a25 25 0 1 0 0 50h127a25 25 0 0 0 0-50z" p-id="887"></path></svg>