<?xml version="1.0" standalone="no"?><!DOCTYPE svg PUBLIC "-//W3C//DTD SVG 1.1//EN" "http://www.w3.org/Graphics/SVG/1.1/DTD/svg11.dtd"><svg t="1733147526770" class="icon" viewBox="0 0 1024 1024" version="1.1" xmlns="http://www.w3.org/2000/svg" p-id="1271" xmlns:xlink="http://www.w3.org/1999/xlink" width="200" height="200"><path d="M962.636704 0.639201c33.238452 0 60.084894 26.207241 60.084894 58.167291v199.430711c0 31.96005-26.846442 58.167291-60.084894 58.167291s-60.084894-26.207241-60.084894-58.167291v-58.806491l-202.626716 169.388264a239.956055 239.956055 0 0 1-310.651686 1.917603c-47.300874-40.908864-117.612984-38.35206-161.717852 5.113608l-127.8402 122.087391a56.888889 56.888889 0 0 1-40.908864 15.980025c-24.289638 0-45.383271-14.701623-54.332085-37.073658s-3.196005-47.300874 14.062422-63.9201l127.200999-121.44819a237.01573 237.01573 0 0 1 320.2397-10.866417c45.383271 38.991261 112.499376 38.35206 157.243446-0.639201l194.956304-163.635455h-62.641697c-33.238452 0-60.084894-26.207241-60.084894-58.167291s26.846442-58.167291 60.084894-58.167291h207.101123zM531.815231 511.360799c54.332085 0 81.817728 26.207241 81.817728 78.621723v354.756554c0 52.414482-27.485643 78.621723-81.817728 78.621723H449.997503c-54.332085 0-81.817728-26.207241-81.817728-78.621723V589.982522c0-52.414482 27.485643-78.621723 81.817728-78.621723h81.817728z m368.179775-78.621723c54.332085 0 81.817728 24.928839 81.817728 74.147316v442.966292c0 49.218477-27.485643 74.147316-81.817728 74.147316H818.177278c-54.332085 0-81.817728-24.928839-81.817727-74.147316V506.247191c0-49.218477 27.485643-74.147316 81.817727-74.147316h81.817728zM204.54432 668.604245c54.332085 0 81.817728 26.207241 81.817727 78.621723v196.873907c0 53.053683-27.485643 79.260924-81.817727 79.260924H122.726592c-54.332085 0-81.817728-26.207241-81.817728-78.621723v-196.873907c0-52.414482 27.485643-78.621723 81.817728-78.621723H204.54432z" p-id="1272"></path></svg>