<?xml version="1.0" standalone="no"?><!DOCTYPE svg PUBLIC "-//W3C//DTD SVG 1.1//EN" "http://www.w3.org/Graphics/SVG/1.1/DTD/svg11.dtd"><svg t="1733147585114" class="icon" viewBox="0 0 1024 1024" version="1.1" xmlns="http://www.w3.org/2000/svg" p-id="1583" xmlns:xlink="http://www.w3.org/1999/xlink" width="200" height="200"><path d="M341.12 725.12h597.12c47.36 0 85.12 38.4 85.12 85.12 0.64 47.36-37.76 85.76-84.48 85.76H341.12a85.504 85.504 0 0 1 0-170.88z m0-298.24h597.12a85.12 85.12 0 1 1 0.64 170.24H341.12a85.12 85.12 0 1 1 0-170.24z m0-298.88h597.12C985.6 128 1024 166.4 1024 213.12c0 47.36-38.4 85.12-85.12 85.12H341.12C294.4 298.88 256 260.48 256 213.12 256 166.4 294.4 128 341.12 128z m-256 597.12a85.12 85.12 0 1 1 0 170.24A84.48 84.48 0 0 1 0 810.88c0-47.36 38.4-85.76 85.12-85.76z m0-298.24a85.12 85.12 0 1 1 0.064 170.176A85.12 85.12 0 0 1 85.12 426.88z m0-298.88a85.12 85.12 0 1 1 0 170.24C38.4 298.88 0 260.48 0 213.12 0 166.4 38.4 128 85.12 128z" p-id="1584"></path></svg>