<?xml version="1.0" encoding="UTF-8"?>
<svg width="12px" height="8px" viewBox="0 0 12 8" version="1.1" xmlns="http://www.w3.org/2000/svg" xmlns:xlink="http://www.w3.org/1999/xlink">
    <g id="页面-1" stroke="none" stroke-width="1" fill="none" fill-rule="evenodd">
        <g id="4查看_不需要试译01" transform="translate(-653.000000, -297.000000)" fill="#3794F2" fill-rule="nonzero">
            <g id="试译弹窗" transform="translate(471.000000, 182.000000)">
                <g id="编组-11" transform="translate(49.000000, 81.000000)">
                    <g id="yulan" transform="translate(133.000000, 34.000000)">
                        <path d="M11.2851498,4.33059541 C10.5783633,5.14595241 8.95196333,7.18650193 5.68909732,7.18650193 C2.98418283,7.18650193 1.2693447,5.33648998 0.170697881,4.16953724 C-0.068732345,3.9150078 -0.0622612589,3.28731234 0.236846775,2.97957619 C1.19960076,1.98878082 2.93313314,0.0035950478 5.68909732,0.0035950478 C8.51840048,0.0035950478 10.5740492,2.32743439 11.3196623,3.10252685 C11.5382412,3.32973391 11.6065471,3.96030541 11.2851498,4.33059541 L11.2851498,4.33059541 Z M5.7624363,1.04687812 C4.31506978,1.04687812 3.14164596,2.19657462 3.14164596,3.61446175 C3.14164596,5.03234887 4.31506978,6.18204539 5.7624363,6.18204539 C7.20980282,6.18204539 8.38322665,5.03234888 8.38322665,3.61446175 C8.38322665,2.19657463 7.20980282,1.04687812 5.7624363,1.04687812 Z M5.7624363,5.15026647 C4.89674863,5.15026647 4.19499516,4.46217419 4.19499516,3.61446175 C4.19499516,2.76674932 4.89674862,2.07865703 5.7624363,2.07865703 C6.62812398,2.07865703 7.32987744,2.76674932 7.32987744,3.61446175 C7.32987744,4.46217419 6.62812398,5.15026647 5.7624363,5.15026647 Z" id="查看"></path>
                    </g>
                </g>
            </g>
        </g>
    </g>
</svg>