<?xml version="1.0" encoding="UTF-8"?>
<svg width="40px" height="46px" viewBox="0 0 40 46" version="1.1" xmlns="http://www.w3.org/2000/svg" xmlns:xlink="http://www.w3.org/1999/xlink">
    <title>形状结合</title>
    <g id="考试系统-审核_V1.0.0" stroke="none" stroke-width="1" fill="none" fill-rule="evenodd">
        <g id="2-1考试详情-审核提醒" transform="translate(-663.000000, -246.000000)" fill="#3794F2" fill-rule="nonzero">
            <g id="Group-8备份-2" transform="translate(458.000000, 200.000000)">
                <g id="审核提醒" transform="translate(205.000000, 46.000000)">
                    <path d="M20.0007334,4.27906977 C27.4500579,4.27906977 33.5091095,10.3288275 33.6807049,17.8577825 L33.6844421,18.1860465 C33.6844421,24.5740963 34.8313899,29.6252973 36.7310959,33.4867017 C37.3864555,34.8188071 38.0838547,35.9056003 38.7752631,36.7644433 L39.0266655,37.0675908 L39.244492,37.3141182 L39.4255573,37.5051052 L39.5666764,37.6416317 C39.5866904,37.6599078 39.6049073,37.6759596 39.6212606,37.6898098 L39.6685771,37.7323895 C39.6783323,37.7417183 39.6879122,37.7512341 39.6973115,37.7609314 L39.686,37.75 L39.7459785,37.8144446 L39.7459785,37.8144446 C39.7570337,37.8277396 39.7679112,37.8412469 39.7784643,37.8550235 C39.7902272,37.8700897 39.8012995,37.8853741 39.8119281,37.9008953 C39.8235115,37.91808 39.8351519,37.9361819 39.8462565,37.9546527 L39.8721825,38.0000929 L39.8721825,38.0000929 C39.8823217,38.0191185 39.8923716,38.0392984 39.9017988,38.0598329 C39.9092256,38.0760918 39.9160655,38.0920791 39.9225078,38.1082027 C39.930679,38.1283741 39.9383078,38.1492193 39.9453046,38.1703596 C39.9497258,38.1842077 39.9539301,38.1978595 39.9578614,38.2115809 C39.9653165,38.2368941 39.9718492,38.2632973 39.9773969,38.2900694 C39.9801501,38.3042094 39.982704,38.3178501 39.9849966,38.331532 C39.9881536,38.349503 39.9907747,38.3681127 39.9929184,38.3868704 L39.9942209,38.3996757 L39.9985698,38.4557866 L39.9985698,38.4557866 L40,38.5116279 L39.9999516,38.524991 C39.9983622,38.660788 39.9714486,38.7967755 39.9185073,38.9250886 C39.8940107,38.9844396 39.8643754,39.0411199 39.8301787,39.0945055 C39.80745,39.1298777 39.7828649,39.1637507 39.7560313,39.1964763 L39.6878961,39.2719169 L39.6878961,39.2719169 L39.7560313,39.1964763 C39.717024,39.2440489 39.6748135,39.2873089 39.6299856,39.3262023 L39.5951469,39.3549155 L39.5951469,39.3549155 C39.5780633,39.3686977 39.5612081,39.3812615 39.5440631,39.3932601 C39.5296663,39.4031477 39.5144828,39.4132217 39.4990346,39.4229013 C39.480653,39.4345589 39.4620421,39.4454016 39.4431736,39.4556283 C39.427896,39.4638519 39.4123919,39.4717861 39.3966743,39.4793365 C39.3749328,39.4897552 39.3526743,39.4994692 39.3301579,39.5083762 C39.3163478,39.5139499 39.3026092,39.5190655 39.2887399,39.5238949 C39.2719273,39.529597 39.2546179,39.5351105 39.2371969,39.5401631 C39.2122182,39.5475973 39.1867981,39.553952 39.161034,39.5593499 C39.1559804,39.5602347 39.1509852,39.5612449 39.1459838,39.5622183 C39.1210708,39.5672226 39.0957562,39.571177 39.0701616,39.5741982 L39.0467378,39.5766215 C39.0353992,39.5777135 39.0240435,39.5786197 39.0126753,39.5793395 L38.947407,39.5813953 L28.1560365,39.5820082 C27.2146217,43.3042121 23.8903231,46 20.0007334,46 C16.1112092,46 12.7868505,43.3041817 11.8454304,39.5820014 L1.05469129,39.5813953 C0.111224748,39.5813953 -0.337391391,38.4324285 0.292512031,37.772922 L0.500788693,37.5801089 L0.662278548,37.4164877 L0.862122012,37.1978663 C0.971101273,37.0746256 1.09326867,36.9303549 1.22683251,36.7644468 C1.91823877,35.9056073 2.61563579,34.8188187 3.27099329,33.4867197 C5.0048731,29.9623845 6.11680023,25.4248265 6.29292026,19.7906977 C6.29292026,13.774077 8.25683882,9.38522145 12.1991252,6.75863631 L12.2056537,6.75480216 C14.477307,5.1519362 17.1761452,4.27906977 20.0007334,4.27906977 Z M25.956936,39.5813953 L14.0436887,39.5813953 C14.8637185,41.9372145 16.9860658,43.6367695 19.4942283,43.8400157 L19.7462966,43.8553215 L20.0007334,43.8604651 C22.7266888,43.8604651 25.0831477,42.094145 25.956936,39.5813953 Z M20.0007334,6.41860465 C17.6087752,6.41860465 15.3281361,7.15621588 13.4062354,8.51229831 L13.3878037,8.52501296 C13.3853614,8.52665888 13.3829102,8.52829618 13.38045,8.52992481 C10.0637434,10.725607 8.39810622,14.4339949 8.3975786,19.8245648 C8.21137658,25.7991271 7.02507049,30.6402111 5.15392827,34.44355 C4.62405311,35.5205899 4.08974608,36.4258446 3.58166947,37.1693841 L3.39039511,37.4418605 L36.6113638,37.4430303 C36.0472021,36.6514638 35.444871,35.6564245 34.8481603,34.4435308 C32.8006426,30.2816794 31.5792562,24.9026479 31.5792562,18.1860465 C31.5792562,11.687086 26.395357,6.41860465 20.0007334,6.41860465 Z M20.0013649,0 C22.3266481,0 24.2117369,1.91580372 24.2117369,4.27906977 L24.2117369,4.27906977 L15.790993,4.27906977 C15.790993,1.91580372 17.6760818,0 20.0013649,0 Z" id="形状结合"></path>
                </g>
            </g>
        </g>
    </g>
</svg>