<?xml version="1.0" encoding="UTF-8"?>
<svg width="10px" height="10px" viewBox="0 0 10 10" version="1.1" xmlns="http://www.w3.org/2000/svg" xmlns:xlink="http://www.w3.org/1999/xlink">
    <title>形状结合</title>
    <g id="考试系统_V1.0.1" stroke="none" stroke-width="1" fill="none" fill-rule="evenodd">
        <g id="1-3-8考试详情/初审/批量选择评卷人状态备份" transform="translate(-293.000000, -265.000000)" fill="#C2C6CE">
            <g id="任务详情弹框" transform="translate(273.000000, 138.000000)">
                <path d="M25,127 C27.7614237,127 30,129.238576 30,132 C30,134.761424 27.7614237,137 25,137 C22.2385763,137 20,134.761424 20,132 C20,129.238576 22.2385763,127 25,127 Z M25,133.666667 C24.5397627,133.666667 24.1666667,134.039763 24.1666667,134.5 C24.1666667,134.960237 24.5397627,135.333333 25,135.333333 C25.4602373,135.333333 25.8333333,134.960237 25.8333333,134.5 C25.8333333,134.039763 25.4602373,133.666667 25,133.666667 Z M25,128.666667 C24.9772047,128.666667 24.9544209,128.66769 24.9317174,128.669733 C24.5127383,128.707445 24.2036598,129.077666 24.2413712,129.496645 L24.2413712,129.496645 L24.4995375,132.364907 C24.5234105,132.63014 24.7457143,132.833333 25.0120196,132.833333 C25.277923,132.833333 25.4994987,132.629638 25.521819,132.364673 L25.521819,132.364673 L25.7633824,129.497059 C25.7651841,129.475671 25.7660861,129.454217 25.7660861,129.432753 C25.7660861,129.009655 25.4230977,128.666667 25,128.666667 Z" id="形状结合"></path>
            </g>
        </g>
    </g>
</svg>