<?xml version="1.0" encoding="UTF-8"?>
<svg width="13px" height="12px" viewBox="0 0 13 12" version="1.1" xmlns="http://www.w3.org/2000/svg" xmlns:xlink="http://www.w3.org/1999/xlink">
    <g id="考试系统_V1.0.1" stroke="none" stroke-width="1" fill="none" fill-rule="evenodd">
        <g id="1-3-1考试详情" transform="translate(-771.000000, -309.000000)" fill="#3794F2">
            <g id="任务列表" transform="translate(210.000000, 228.000000)">
                <g id="应考试人数备份-3" transform="translate(505.428571, 81.000000)">
                    <path d="M62,0 C65.3137085,-6.08718376e-16 68,2.6862915 68,6 C68,9.3137085 65.3137085,12 62,12 C58.6862915,12 56,9.3137085 56,6 C56,2.6862915 58.6862915,6.08718376e-16 62,0 Z M61.9313507,8.18164062 C61.6806997,8.18164062 61.4691111,8.26220703 61.2965851,8.42333984 C61.1240591,8.58447266 61.037796,8.77734375 61.037796,9.00195313 C61.037796,9.22005208 61.1240591,9.40966797 61.2965851,9.57080078 C61.4691111,9.73193359 61.6806997,9.8125 61.9313507,9.8125 C62.1787466,9.8125 62.3903351,9.7327474 62.5661163,9.57324219 C62.7418976,9.41373698 62.8297882,9.22330729 62.8297882,9.00195313 C62.8297882,8.77408854 62.7418976,8.58040365 62.5661163,8.42089844 C62.3903351,8.26139323 62.1787466,8.18164062 61.9313507,8.18164062 Z M62.1510773,2 C61.4870148,2 60.8636424,2.16276042 60.2809601,2.48828125 L60.2809601,3.9921875 C60.8083038,3.53645833 61.3779653,3.30859375 61.9899445,3.30859375 C62.3056997,3.30859375 62.5482127,3.38020833 62.7174835,3.5234375 C62.8867544,3.66666667 62.9713898,3.85872396 62.9713898,4.09960938 C62.9713898,4.30794271 62.9144236,4.50244141 62.8004913,4.68310547 C62.6865591,4.86376953 62.4570669,5.09570313 62.1120148,5.37890625 C61.8125356,5.62630208 61.5993195,5.87288411 61.4723663,6.11865234 C61.3454132,6.36442057 61.2819367,6.66145833 61.2819367,7.00976562 L61.2819367,7.46875 L62.5709992,7.46875 L62.5709992,7.13183594 C62.5709992,6.91048177 62.6190135,6.72086589 62.7150421,6.56298828 C62.8110708,6.40511068 63.0332387,6.18782552 63.381546,5.91113281 C63.7949575,5.57584635 64.0862986,5.25032552 64.2555695,4.93457031 C64.4248403,4.6188151 64.5094757,4.27376302 64.5094757,3.89941406 C64.5094757,3.31673177 64.30277,2.85449219 63.8893585,2.51269531 C63.4759471,2.17089844 62.89652,2 62.1510773,2 Z" id="形状结合"></path>
                </g>
            </g>
        </g>
    </g>
</svg>