<?xml version="1.0" encoding="UTF-8"?>
<svg width="16px" height="20px" viewBox="0 0 16 20" version="1.1" xmlns="http://www.w3.org/2000/svg" xmlns:xlink="http://www.w3.org/1999/xlink">
    <title>剩余时间</title>
    <g id="考试系统_V1.0.1" stroke="none" stroke-width="1" fill="none" fill-rule="evenodd">
        <g id="6-1-1编辑器-考生/考试信息tab" transform="translate(-664.000000, -9.000000)" fill="#656565" fill-rule="nonzero">
            <g id="编组-2" transform="translate(662.000000, 9.000000)">
                <g id="剩余时间" transform="translate(2.166667, 0.916667)">
                    <path d="M10.3333333,-1.8189894e-12 C10.7475469,-1.8189894e-12 11.0833333,0.335786438 11.0833333,0.75 C11.0833333,1.12969577 10.8011795,1.44349096 10.4351039,1.49315338 L10.3333333,1.5 L8.583,1.5 L8.58333333,2.41666667 L8.57648672,2.51843722 L8.57648672,2.51843722 L8.57340869,2.53450299 C12.5525565,2.90739209 15.6666667,6.25669302 15.6666667,10.3333333 C15.6666667,14.6595639 12.1595639,18.1666667 7.83333333,18.1666667 C3.50710279,18.1666667 -6.00408612e-13,14.6595639 -6.00408612e-13,10.3333333 C-6.00408612e-13,6.25669302 3.11411014,2.90739209 7.09325798,2.53450299 L7.09017995,2.51843722 L7.09017995,2.51843722 L7.08333333,2.41666667 L7.083,1.5 L5.33333333,1.5 C4.91911977,1.5 4.58333333,1.16421356 4.58333333,0.75 C4.58333333,0.370304234 4.86548721,0.0565090391 5.23156278,0.00684661599 L5.33333333,-1.8189894e-12 L10.3333333,-1.8189894e-12 Z M7.83333333,4 C4.33552992,4 1.5,6.83552992 1.5,10.3333333 C1.5,13.8311367 4.33552992,16.6666667 7.83333333,16.6666667 C11.3311367,16.6666667 14.1666667,13.8311367 14.1666667,10.3333333 C14.1666667,6.83552992 11.3311367,4 7.83333333,4 Z M7.83333333,6.25 C8.2130291,6.25 8.52682429,6.53215388 8.57648672,6.89822944 L8.58333333,7 L8.583,9.583 L11.1666667,9.58333333 C11.5808802,9.58333333 11.9166667,9.91911977 11.9166667,10.3333333 C11.9166667,10.7130291 11.6345128,11.0268243 11.2684372,11.0764867 L11.1666667,11.0833333 L7.83333333,11.0833333 L7.83333333,11.0833333 C7.45363757,11.0833333 7.13984237,10.8011795 7.09017995,10.4351039 L7.08333333,10.3333333 L7.08333333,7 C7.08333333,6.58578644 7.41911977,6.25 7.83333333,6.25 Z"></path>
                </g>
            </g>
        </g>
    </g>
</svg>