<?xml version="1.0" encoding="UTF-8"?>
<svg width="12px" height="12px" viewBox="0 0 12 12" version="1.1" xmlns="http://www.w3.org/2000/svg" xmlns:xlink="http://www.w3.org/1999/xlink">
    <title>提示</title>
    <g id="考试系统_V1.0.1" stroke="none" stroke-width="1" fill="none" fill-rule="evenodd">
        <g id="1-3-5考试详情/初审" transform="translate(-401.000000, -648.000000)" fill="#F4C55E">
            <g id="任务列表" transform="translate(210.000000, 417.000000)">
                <g id="form" transform="translate(20.000000, 111.000000)">
                    <g id="2" transform="translate(0.000000, 100.000000)">
                        <path d="M177,20 C180.313708,20 183,22.6862915 183,26 C183,29.3137085 180.313708,32 177,32 C173.686292,32 171,29.3137085 171,26 C171,22.6862915 173.686292,20 177,20 Z M177,24.56 C176.734903,24.56 176.52,24.7749033 176.52,25.04 L176.52,25.04 L176.52,29.12 C176.52,29.3850967 176.734903,29.6 177,29.6 C177.265097,29.6 177.48,29.3850967 177.48,29.12 L177.48,29.12 L177.48,25.04 C177.48,24.7749033 177.265097,24.56 177,24.56 Z M177,22.4 C176.602355,22.4 176.28,22.722355 176.28,23.12 C176.28,23.517645 176.602355,23.84 177,23.84 C177.397645,23.84 177.72,23.517645 177.72,23.12 C177.72,22.722355 177.397645,22.4 177,22.4 Z" id="提示"></path>
                    </g>
                </g>
            </g>
        </g>
    </g>
</svg>